<svg width="112" height="71" viewBox="0 0 112 71" fill="none" xmlns="http://www.w3.org/2000/svg">
<g id="_Layer_" clip-path="url(#clip0_752_1543)">
<path id="Vector" fill-rule="evenodd" clip-rule="evenodd" d="M60.2993 48.0695C60.2993 48.0695 66.0447 33.3899 68.1679 28.4288C70.2912 23.574 70.7194 21.4566 78.481 19.6671C86.1355 17.7624 90.0698 16.7081 91.6667 16.3892C91.6667 16.3892 94.6464 15.8576 94.7534 17.5497C94.8605 18.7103 93.6918 20.615 92.8354 21.7756C92.8354 21.7756 91.8808 23.574 86.7778 24.203C86.7778 24.203 77.7405 25.7887 75.2961 27.3745C72.7446 29.0666 71.897 29.3767 69.8719 32.2293C67.8468 35.082 60.2993 48.0695 60.2993 48.0695Z" fill="#D5D4D7"/>
<path id="Vector_2" fill-rule="evenodd" clip-rule="evenodd" d="M60.2993 48.0698C60.2993 48.0698 74.3326 21.457 77.3123 15.5479C80.1849 9.53255 81.1395 6.46729 90.8192 4.2525C100.383 1.92255 106.128 0.549382 108.046 0.124143C108.046 0.124143 111.347 -0.611165 111.445 1.49731C111.552 2.97679 109.955 5.5105 108.787 6.88367C108.787 6.88367 107.618 9.09845 101.346 9.94893C101.346 9.94893 90.0698 11.641 86.8848 13.4306C83.584 15.229 82.5223 16.4958 79.9708 19.9775C77.5264 23.5654 60.2993 48.0698 60.2993 48.0698Z" fill="#D5D4D7"/>
<path id="Vector_3" fill-rule="evenodd" clip-rule="evenodd" d="M35.6228 8.15039L29.7794 22.5111L23.927 8.2567V8.15039H17.7623V8.2567L12.017 22.4047L6.16463 8.15039H0L8.93024 29.9084H15.1038L20.8402 15.7515L26.6926 29.9084H32.8572L41.7964 8.15039H35.6228Z" fill="#D5D4D7"/>
<path id="Vector_4" fill-rule="evenodd" clip-rule="evenodd" d="M64.9738 8.15039L61.2537 17.1247H51.0477L54.6608 8.15039H48.4872L39.6641 29.9084H45.7306L49.2366 21.4568H59.5497L56.0436 29.9084H62.2082L71.0314 8.15039H64.9738Z" fill="#D5D4D7"/>
<path id="Vector_5" fill-rule="evenodd" clip-rule="evenodd" d="M10.9557 44.6853L12.7578 39.0952H13.9354L15.6304 44.6853L17.5485 39.0952H18.9313L16.2728 46.8027H14.997L13.4001 41.5226H13.2931L11.5891 46.8027H10.3133L7.65479 39.0952H9.03759L10.9557 44.6853Z" fill="#D5D4D7"/>
<path id="Vector_6" fill-rule="evenodd" clip-rule="evenodd" d="M26.4786 40.991C25.9433 40.362 25.3099 40.1494 24.4624 40.1494C23.713 40.1494 23.0796 40.362 22.5443 40.991C22.009 41.5226 21.8038 42.1516 21.8038 42.8957C21.8038 43.6399 22.0179 44.3752 22.5443 44.8979C23.0796 45.4294 23.713 45.6332 24.4624 45.6332C25.3099 45.6332 25.9522 45.4206 26.4786 44.8979C27.0139 44.3663 27.228 43.631 27.228 42.8957C27.228 42.1604 27.0139 41.5226 26.4786 40.991ZM27.4332 45.7395C26.5857 46.4748 25.6222 46.9001 24.4535 46.9001C23.3918 46.9001 22.4372 46.4748 21.5808 45.7395C20.8403 45.0042 20.4121 44.0474 20.4121 42.8869C20.4121 41.8326 20.8403 40.8847 21.5808 40.0342C22.4283 39.2989 23.3918 38.98 24.4535 38.98C25.6222 38.98 26.5767 39.2989 27.4332 40.0342C28.1737 40.8758 28.6019 41.8326 28.6019 42.8869C28.6019 44.0474 28.1737 44.9953 27.4332 45.7395Z" fill="#D5D4D7"/>
<path id="Vector_7" fill-rule="evenodd" clip-rule="evenodd" d="M35.5156 42.6832C35.7297 42.4705 35.9438 42.1516 35.9438 41.6289C35.9438 41.1062 35.7297 40.7873 35.5156 40.5747C35.1944 40.3621 34.7751 40.3621 34.0257 40.3621H32.3218V43.0021H34.0257C34.7662 43.0021 35.1944 42.8958 35.5156 42.6832ZM37.2196 41.6289C37.2196 42.8958 36.6843 43.64 35.5156 44.0563L37.5318 46.8027H35.9349L34.1239 44.269H32.3129V46.8027H31.0371V39.0952H33.9098C35.0785 39.0952 35.926 39.3078 36.4613 39.7242C36.9965 40.1495 37.2017 40.7785 37.2017 41.6289H37.2196Z" fill="#D5D4D7"/>
<path id="Vector_8" fill-rule="evenodd" clip-rule="evenodd" d="M39.9854 46.8027V39.0952H41.2611V45.5358H44.7672V46.8027H39.9854Z" fill="#D5D4D7"/>
<path id="Vector_9" fill-rule="evenodd" clip-rule="evenodd" d="M52.7428 43.0021C52.7428 41.2037 51.6811 40.3621 49.656 40.3621H48.3802V45.5358H49.8701C50.7176 45.5358 51.467 45.3232 51.9934 44.9068C52.4216 44.4816 52.7428 43.8526 52.7428 43.0021ZM52.9569 40.1495C53.6973 40.7873 54.0185 41.7352 54.0185 42.8958C54.0185 44.1626 53.6973 45.0043 52.9569 45.7484C52.2164 46.4837 51.1459 46.8027 49.656 46.8027H47.1045V39.0952H49.763C51.1458 39.0952 52.2075 39.5205 52.9569 40.1495Z" fill="#D5D4D7"/>
<path id="Vector_10" fill-rule="evenodd" clip-rule="evenodd" d="M8.93018 58.4171V50.8159H10.2059V54.0849H14.0421V50.8159H15.3089V58.4171H14.0421V55.3518H10.2059V58.4171H8.93018Z" fill="#D5D4D7"/>
<path id="Vector_11" fill-rule="evenodd" clip-rule="evenodd" d="M23.8198 52.6053C23.2845 52.0737 22.6511 51.7636 21.9106 51.7636C21.1702 51.7636 20.5278 52.0826 19.9925 52.6053C19.4573 53.1368 19.2521 53.7658 19.2521 54.51C19.2521 55.3516 19.4662 55.9895 19.9925 56.5121C20.5278 57.0437 21.1612 57.3538 21.9106 57.3538C22.66 57.3538 23.2934 57.0348 23.8198 56.5121C24.3551 55.9806 24.6673 55.3516 24.6673 54.51C24.6673 53.7747 24.3462 53.1368 23.8198 52.6053ZM24.7744 57.3538C24.0339 58.0891 23.0704 58.5143 21.9017 58.5143C20.733 58.5143 19.7784 58.0891 19.029 57.3538C18.2886 56.6185 17.8604 55.6617 17.8604 54.5011C17.8604 53.4469 18.2886 52.499 19.029 51.7548C19.7784 51.0195 20.733 50.5942 21.9017 50.5942C23.0704 50.5942 24.025 51.0195 24.7744 51.7548C25.6219 52.499 25.9431 53.4469 25.9431 54.5011C25.9431 55.6617 25.6219 56.6096 24.7744 57.3538Z" fill="#D5D4D7"/>
<path id="Vector_12" fill-rule="evenodd" clip-rule="evenodd" d="M32.0093 57.2563C32.4375 57.2563 32.8568 57.15 33.178 57.0437C33.4991 56.9374 33.8114 56.6185 34.1325 56.2995L34.9801 57.1411C34.2396 58.0891 33.169 58.5143 32.0003 58.5143C30.8316 58.5143 29.8771 58.0891 29.1277 57.3538C28.3783 56.6185 27.959 55.6617 27.959 54.6074C27.959 53.4469 28.3872 52.499 29.1277 51.7548C29.9752 51.0195 30.9387 50.5942 32.1074 50.5942C33.2761 50.5942 34.3377 51.0195 35.0871 51.8611L34.3466 52.809C33.9184 52.4901 33.6062 52.1712 33.285 52.0737C32.9638 51.9674 32.5445 51.8611 32.1163 51.8611C31.3758 51.8611 30.7335 52.0737 30.2072 52.5964C29.6719 53.128 29.3596 53.757 29.3596 54.5011C29.3596 55.3427 29.6808 55.9806 30.1001 56.5121C30.6354 57.0437 31.2688 57.2475 32.0182 57.2475" fill="#D5D4D7"/>
<path id="Vector_13" fill-rule="evenodd" clip-rule="evenodd" d="M37.541 50.8159H38.8168V54.5102L42.3228 50.8159H43.9198L40.833 54.0849L44.0268 58.4171H42.4299L39.8784 55.0417L38.8168 56.3086V58.4171H37.541V50.8159Z" fill="#D5D4D7"/>
<path id="Vector_14" fill-rule="evenodd" clip-rule="evenodd" d="M51.5741 50.8159V51.9765H47.4257V53.9786H51.1458V55.1392H47.4257V57.2565H51.6811V58.4171H46.1499V50.8159H51.5741Z" fill="#D5D4D7"/>
<path id="Vector_15" fill-rule="evenodd" clip-rule="evenodd" d="M57.2124 58.4171H55.9366V55.4581L53.064 50.8159H54.4468L56.57 54.2976L58.7022 50.8159H60.085L57.2124 55.4581V58.4171Z" fill="#D5D4D7"/>
<path id="Vector_16" fill-rule="evenodd" clip-rule="evenodd" d="M10.2059 63.6977V65.8061H13.6139V67.073H10.2059V70.1383H8.93018V62.5371H14.0332V63.6977H10.2059Z" fill="#D5D4D7"/>
<path id="Vector_17" fill-rule="evenodd" clip-rule="evenodd" d="M21.9018 64.3265C21.4736 63.7949 20.7331 63.4848 19.9927 63.4848C19.2522 63.4848 18.6099 63.8038 18.0746 64.3265C17.5393 64.858 17.3341 65.487 17.3341 66.3286C17.3341 67.0639 17.5482 67.7018 18.0746 68.2333C18.6099 68.7649 19.2433 69.075 19.9927 69.075C20.7421 69.075 21.4825 68.756 21.9018 68.2333C22.4371 67.7018 22.7493 67.0728 22.7493 66.3286C22.7493 65.487 22.4282 64.8491 21.9018 64.3265ZM22.8564 69.075C22.1159 69.9166 21.1524 70.2355 19.9837 70.2355C18.815 70.2355 17.8605 69.9166 17.1111 69.075C16.3706 68.3396 15.9424 67.3829 15.9424 66.3286C15.9424 65.1681 16.3706 64.2201 17.1111 63.476C17.8605 62.7407 18.815 62.3154 19.9837 62.3154C21.1524 62.3154 22.107 62.7407 22.8564 63.476C23.7039 64.2113 24.0251 65.1681 24.0251 66.3286C24.0251 67.3829 23.7039 68.3396 22.8564 69.075Z" fill="#D5D4D7"/>
<path id="Vector_18" fill-rule="evenodd" clip-rule="evenodd" d="M31.0552 66.1251C31.2693 65.9124 31.3763 65.4961 31.3763 65.0708C31.3763 64.5393 31.2693 64.2292 31.0552 64.0166C30.734 63.804 30.2076 63.6977 29.5653 63.6977H27.8613V66.444H29.5653C30.1987 66.444 30.734 66.3377 31.0552 66.1251ZM32.7591 65.0708C32.7591 66.2314 32.2239 67.0819 31.0552 67.3919L33.0714 70.1383H31.4745L29.5564 67.6045H27.8524V70.1383H26.5767V62.5371H29.4493C30.618 62.5371 31.4655 62.7497 32.0008 63.1661C32.5361 63.485 32.7413 64.114 32.7413 65.0708H32.7591Z" fill="#D5D4D7"/>
<path id="Vector_19" fill-rule="evenodd" clip-rule="evenodd" d="M37.2195 68.4457C37.5406 68.871 38.067 69.0836 38.6023 69.0836C39.2357 69.0836 39.771 68.871 40.0921 68.4457C40.4133 68.0205 40.6274 67.4978 40.6274 66.7536V62.5278H41.9031V66.86C41.9031 67.9142 41.582 68.7647 41.0556 69.3937C40.4222 69.9252 39.5658 70.2353 38.6112 70.2353C37.7637 70.2353 36.9072 69.9164 36.2738 69.3937C35.7385 68.7558 35.4263 67.9142 35.4263 66.86V62.5278H36.702V66.7536C36.702 67.4889 36.9161 68.0205 37.2373 68.4457" fill="#D5D4D7"/>
<path id="Vector_20" fill-rule="evenodd" clip-rule="evenodd" d="M46.1498 70.1383H44.874V62.5371H46.8992L49.2365 67.3919L51.4669 62.5371H53.492V70.1383H52.2163V64.2292L49.5577 69.5093H48.8083L46.1498 64.2292V70.1383Z" fill="#D5D4D7"/>
</g>
<defs>
<clipPath id="clip0_752_1543">
<rect width="111.454" height="70.2441" fill="white"/>
</clipPath>
</defs>
</svg>
