<svg width="67" height="66" viewBox="0 0 67 66" fill="none" xmlns="http://www.w3.org/2000/svg">
<g id="Apple iCal" clip-path="url(#clip0_725_97686)">
<path id="Vector" d="M48.8981 0.167969H18.1363C8.52325 0.167969 0.715088 7.97613 0.715088 17.5892V48.351C0.715088 57.964 8.52325 65.7722 18.1363 65.7722H48.8981C58.5112 65.7722 66.3193 57.964 66.3193 48.351V17.5892C66.3193 7.97613 58.5112 0.167969 48.8981 0.167969ZM18.1363 1.63936H48.8981C57.6872 1.63936 64.8479 8.8001 64.8479 17.5892V19.8257H2.18647V17.5892C2.18647 8.8001 9.34722 1.63936 18.1363 1.63936ZM48.8981 64.3008H18.1363C9.34722 64.3008 2.18647 57.1401 2.18647 48.351V21.2971H64.8479V48.351C64.8479 57.1401 57.6872 64.3008 48.8981 64.3008Z" fill="#628BFF"/>
<path id="Vector_2" d="M26.7683 15.0387C27.4354 14.666 27.9454 14.1363 28.3182 13.4496C28.6713 12.763 28.8479 11.9194 28.8479 10.9581C28.8479 9.99678 28.6713 9.17281 28.3182 8.46654C27.9651 7.77989 27.455 7.25019 26.788 6.87744C26.1209 6.50469 25.3362 6.32812 24.4141 6.32812H21.2163V15.6077H24.3553C25.297 15.6077 26.1013 15.4311 26.7683 15.0584V15.0387ZM22.8839 14.1363V7.76027H24.316C24.9438 7.76027 25.4735 7.87799 25.8855 8.11341C26.3171 8.34883 26.631 8.70196 26.8468 9.17281C27.0626 9.64365 27.1803 10.2322 27.1803 10.9385C27.1803 11.6447 27.0626 12.2333 26.8468 12.7041C26.631 13.175 26.2975 13.5281 25.8659 13.7635C25.4343 13.999 24.9046 14.1167 24.2572 14.1167H22.8839V14.1363Z" fill="#628BFF"/>
<path id="Vector_3" d="M36.6169 14.1951H32.2223V11.6644H36.2638V10.2518H32.2223V7.72104H36.5777V6.32812H30.5352V15.5881H36.6169V14.1951Z" fill="#628BFF"/>
<path id="Vector_4" d="M40.011 15.1569C40.6584 15.5296 41.3843 15.7258 42.1887 15.7258C42.738 15.7258 43.2481 15.6473 43.6993 15.4708C44.1505 15.3138 44.5429 15.0784 44.8764 14.7841C45.2099 14.4899 45.4846 14.1563 45.7004 13.764C45.9162 13.3716 46.0535 12.9596 46.1124 12.528H44.4252C44.3663 12.783 44.2879 13.0381 44.1505 13.2343C44.0132 13.4501 43.8562 13.6266 43.6601 13.764C43.4639 13.9013 43.2481 14.019 43.0127 14.0975C42.7772 14.176 42.5026 14.2152 42.2279 14.2152C41.7178 14.2152 41.2862 14.0975 40.8939 13.8424C40.5015 13.5874 40.2072 13.2343 39.9718 12.7438C39.756 12.2533 39.6383 11.6648 39.6383 10.9585C39.6383 10.2523 39.756 9.6637 39.9718 9.19286C40.1876 8.7024 40.5015 8.32965 40.8939 8.09422C41.2862 7.83918 41.7375 7.72147 42.2279 7.72147C42.5026 7.72147 42.7772 7.76071 43.0127 7.83918C43.2481 7.91766 43.4835 8.03537 43.6797 8.1727C43.8759 8.32965 44.0328 8.50621 44.1701 8.72202C44.3075 8.93782 44.386 9.19286 44.4448 9.46752H46.132C46.0535 8.95744 45.9162 8.48659 45.6808 8.09422C45.465 7.68224 45.1707 7.34872 44.8176 7.07406C44.4644 6.7994 44.0721 6.5836 43.6404 6.44627C43.1892 6.30894 42.7184 6.23047 42.2083 6.23047C41.4039 6.23047 40.6781 6.42665 40.0306 6.79941C39.3832 7.17216 38.8928 7.72147 38.52 8.42774C38.1473 9.134 37.9707 9.99722 37.9707 10.9978C37.9707 11.9983 38.1473 12.8419 38.52 13.5678C38.8928 14.274 39.3832 14.8234 40.0306 15.1961L40.011 15.1569Z" fill="#628BFF"/>
<path id="Vector_5" d="M16.3706 31.2632V34.5984L23.0017 30.2038H23.1586V53.8637H26.4349V26.751H23.1586L16.3706 31.2632Z" fill="#628BFF"/>
<path id="Vector_6" d="M47.0537 26.751H43.0908L31.1824 45.6043V48.3117H43.9344V53.8637H47.0537V48.3117H50.7616V45.4082H47.0537V26.7706V26.751ZM34.7137 45.1727L43.7186 30.9297H43.9344V45.3885H34.7137V45.1727Z" fill="#628BFF"/>
</g>
<defs>
<clipPath id="clip0_725_97686">
<rect width="65.6042" height="65.6042" fill="white" transform="translate(0.715088 0.167969)"/>
</clipPath>
</defs>
</svg>
