<svg width="39" height="38" viewBox="0 0 39 38" fill="none" xmlns="http://www.w3.org/2000/svg">
<g id="Group 23517">
<path id="Vector" d="M34.3832 7.19185C35.941 7.19185 37.2038 5.92578 37.2038 4.36399C37.2038 2.80221 35.941 1.53613 34.3832 1.53613C32.8254 1.53613 31.5625 2.80221 31.5625 4.36399C31.5625 5.92578 32.8254 7.19185 34.3832 7.19185Z" fill="#242329"/>
<path id="Vector_2" d="M24.4388 6.20149C25.4511 6.20149 26.2717 5.37878 26.2717 4.36393C26.2717 3.34907 25.4511 2.52637 24.4388 2.52637C23.4266 2.52637 22.606 3.34907 22.606 4.36393C22.606 5.37878 23.4266 6.20149 24.4388 6.20149Z" fill="#242329"/>
<path id="Vector_3" d="M36.6586 14.4163C37.6708 14.4163 38.4914 13.5936 38.4914 12.5788C38.4914 11.5639 37.6708 10.7412 36.6586 10.7412C35.6463 10.7412 34.8257 11.5639 34.8257 12.5788C34.8257 13.5936 35.6463 14.4163 36.6586 14.4163Z" fill="#242329"/>
<g id="Group 18935">
<path id="Vector_4" d="M36.632 17.9063C36.6151 17.6585 36.5075 17.4256 36.33 17.2523C36.1524 17.0791 35.9173 16.9776 35.6698 16.9673L35.282 16.938C33.3782 16.7285 31.6351 15.7699 30.436 14.2726C29.2369 12.7754 28.6798 10.8621 28.8871 8.95318V8.93124C28.9091 8.75955 28.8864 8.58505 28.8212 8.42477C28.7559 8.2645 28.6503 8.12387 28.5147 8.01672C28.379 7.90956 28.218 7.8395 28.0474 7.81336C27.8767 7.78721 27.7021 7.80587 27.5407 7.86753C26.4886 8.26195 25.359 8.4046 24.2422 8.2841C23.1253 8.1636 22.0519 7.78329 21.1075 7.17347C20.1631 6.56364 19.3738 5.74114 18.8025 4.7715C18.2312 3.80185 17.8936 2.71188 17.8166 1.58834C17.8078 1.45655 17.773 1.32776 17.7142 1.20956C17.6554 1.09136 17.5738 0.986055 17.4741 0.899732C17.3744 0.813408 17.2586 0.747856 17.1333 0.706761C17.0081 0.665666 16.876 0.649885 16.7447 0.660376C13.2002 0.96865 9.82188 2.30444 7.02177 4.50483C4.22165 6.70523 2.12081 9.67512 0.975561 13.0521C-0.169685 16.4291 -0.309823 20.0673 0.572203 23.5228C1.45423 26.9783 3.32033 30.1018 5.94281 32.5121C8.5653 34.9225 11.8308 36.5155 15.341 37.097C18.8512 37.6784 22.4543 37.2231 25.7107 35.7866C28.9672 34.35 31.7362 31.9943 33.6801 29.0069C35.6239 26.0195 36.6585 22.5294 36.6576 18.9626C36.6613 18.6105 36.6503 18.2584 36.632 17.9063ZM12.6399 7.8455C13.198 7.84551 13.7434 8.01153 14.2074 8.32242C14.6713 8.63332 15.0328 9.07515 15.2462 9.59209C15.4596 10.109 15.5153 10.6778 15.4061 11.2265C15.297 11.7751 15.028 12.279 14.6331 12.6743C14.2383 13.0697 13.7354 13.3387 13.188 13.4474C12.6406 13.5561 12.0733 13.4995 11.558 13.2849C11.0426 13.0703 10.6023 12.7074 10.2928 12.2418C9.98334 11.7763 9.81855 11.2292 9.81928 10.6698C9.82025 9.92041 10.1178 9.20208 10.6467 8.67255C11.1756 8.14301 11.8925 7.8455 12.6399 7.8455ZM7.06446 20.2647C7.06446 19.7052 7.22998 19.1583 7.54008 18.6932C7.85018 18.2281 8.29093 17.8656 8.80655 17.6517C9.32217 17.4378 9.88948 17.382 10.4367 17.4914C10.984 17.6008 11.4866 17.8705 11.8809 18.2664C12.2752 18.6622 12.5436 19.1664 12.652 19.7152C12.7604 20.264 12.7041 20.8327 12.49 21.3494C12.276 21.8661 11.9139 22.3074 11.4495 22.6177C10.9852 22.928 10.4395 23.0932 9.88144 23.0925C9.13623 23.0886 8.42294 22.7888 7.8977 22.2588C7.37247 21.7288 7.07813 21.0118 7.07911 20.2647H7.06446ZM14.2642 30.7362C13.7062 30.7369 13.1605 30.5717 12.6962 30.2614C12.2319 29.9511 11.8698 29.5097 11.6557 28.993C11.4417 28.4764 11.3853 27.9077 11.4937 27.3589C11.6021 26.8101 11.8705 26.3059 12.2648 25.91C12.6591 25.5142 13.1617 25.2444 13.709 25.135C14.2562 25.0256 14.8236 25.0815 15.3392 25.2954C15.8548 25.5093 16.2956 25.8717 16.6057 26.3368C16.9158 26.8019 17.0813 27.3489 17.0813 27.9083C17.0813 28.6552 16.7866 29.3716 16.2616 29.9014C15.7366 30.4313 15.0238 30.7313 14.2789 30.7362H14.2642ZM19.3861 17.4991C19.3861 16.9398 19.5515 16.3931 19.8615 15.9281C20.1714 15.463 20.6119 15.1006 21.1273 14.8866C21.6427 14.6725 22.2099 14.6165 22.757 14.7256C23.3042 14.8348 23.8068 15.1041 24.2013 15.4996C24.5957 15.8951 24.8644 16.3989 24.9732 16.9474C25.0821 17.496 25.0262 18.0646 24.8127 18.5813C24.5992 19.098 24.2377 19.5397 23.7738 19.8504C23.31 20.1611 22.7646 20.327 22.2068 20.327C21.4618 20.3221 20.7491 20.0221 20.224 19.4923C19.699 18.9625 19.4044 18.246 19.4044 17.4991H19.3861ZM26.4249 29.7605C25.8671 29.7605 25.3217 29.5947 24.8579 29.2839C24.394 28.9732 24.0325 28.5316 23.819 28.0149C23.6055 27.4982 23.5496 26.9295 23.6585 26.381C23.7673 25.8324 24.0359 25.3286 24.4304 24.9331C24.8249 24.5376 25.3275 24.2683 25.8747 24.1592C26.4218 24.0501 26.9889 24.106 27.5043 24.3201C28.0198 24.5341 28.4603 24.8965 28.7702 25.3616C29.0801 25.8266 29.2456 26.3734 29.2456 26.9327C29.2456 27.6795 28.951 28.396 28.4259 28.9259C27.9009 29.4557 27.1881 29.7557 26.4432 29.7605H26.4249Z" fill="#242329"/>
</g>
</g>
</svg>
