<svg width="69" height="69" viewBox="0 0 69 69" fill="none" xmlns="http://www.w3.org/2000/svg">
<g id="Google Calendar" clip-path="url(#clip0_725_97684)">
<path id="Vector" d="M62.3384 0.789551H7.03897C3.55197 0.789551 0.715088 3.62643 0.715088 7.11343V62.4129C0.715088 65.8999 3.55197 68.7368 7.03897 68.7368H51.4637L68.6426 51.5579V7.11343C68.6426 3.62643 65.8057 0.789551 62.3187 0.789551H62.3384ZM67.1848 7.11343V16.9243H51.9365V2.26709H62.3384C65.0177 2.26709 67.1848 4.43415 67.1848 7.11343ZM18.5244 18.4018H50.459V50.4547H18.5047V18.4018H18.5244ZM17.0469 50.4547H2.19263V18.4018H17.0271V50.4547H17.0469ZM18.5244 16.9243V2.26709H50.459V16.9243H18.5047H18.5244ZM50.459 51.9322V67.2592H18.5047V51.9322H50.4393H50.459ZM51.9365 51.9322H66.1997L51.9365 66.1954V51.9322ZM51.9365 50.4547V18.4018H67.1848V50.4547H51.9365ZM7.03897 2.26709H17.0271V16.9243H2.19263V7.11343C2.19263 4.43415 4.35969 2.26709 7.03897 2.26709ZM2.19263 62.4129V51.9322H17.0271V67.2592H7.03897C4.35969 67.2592 2.19263 65.0922 2.19263 62.4129Z" fill="#628BFF"/>
<path id="Vector_2" d="M20.9082 27.8975V31.2466L25.6166 28.2325H25.7151V44.7612H29.3597V24.7061H25.8924L20.9082 27.8975Z" fill="#628BFF"/>
<path id="Vector_3" d="M48.095 38.063H45.534V24.7061H41.0028L32.4922 38.1615V41.0575H42.0667V44.7809H45.534V41.0575H48.095V38.063ZM36.2156 37.9054L41.9485 28.8235H42.1061V38.063H36.2156V37.9054Z" fill="#628BFF"/>
</g>
<defs>
<clipPath id="clip0_725_97684">
<rect width="67.9472" height="67.9472" fill="white" transform="translate(0.715088 0.789551)"/>
</clipPath>
</defs>
</svg>
