<svg width="39" height="39" viewBox="0 0 39 39" fill="none" xmlns="http://www.w3.org/2000/svg">
<g id="Layer_16" clip-path="url(#clip0_725_97719)">
<g id="Group 23467">
<path id="Vector" d="M35.8968 2.93986C33.1864 0.231934 28.8267 0.231934 20.1075 0.231934H18.566C9.84678 0.231934 5.48715 0.231934 2.77677 2.93986C0.0688477 5.65023 0.0688477 10.0099 0.0688477 18.7291V20.2706C0.0688477 28.9898 0.0688477 33.3495 2.77677 36.0598C5.48469 38.7678 9.84433 38.7678 18.566 38.7678H20.1075C28.8267 38.7678 33.1864 38.7678 35.8968 36.0598C38.6047 33.3519 38.6047 28.9923 38.6047 20.2706V18.7291C38.6047 10.0099 38.6047 5.65023 35.8968 2.93986Z" fill="#242329"/>
<g id="Group">
<path id="Vector_2" d="M18.2007 23.932C17.9287 23.807 17.6591 23.6673 17.4018 23.5032C16.9926 23.2434 16.6054 22.942 16.25 22.5866C15.8947 22.2313 15.5908 21.8416 15.3335 21.4348L15.7942 20.9741L16.674 20.0944C16.7867 19.9816 16.919 19.8983 17.0538 19.8297C17.0783 19.8174 17.1028 19.8027 17.1273 19.7905C17.2499 19.7366 17.3798 19.7072 17.5121 19.69C17.5611 19.6827 17.6077 19.6802 17.6567 19.6802C17.7277 19.6778 17.7964 19.69 17.8674 19.6974C17.9556 19.7096 18.039 19.717 18.1443 19.7488C18.1615 19.7537 18.1762 19.7635 18.1909 19.7684C18.2742 19.7978 18.3526 19.8321 18.4311 19.8763C18.4825 19.9057 18.5315 19.9424 18.5781 19.9792C18.6173 20.0306 18.6565 20.0846 18.7031 20.1336C18.7594 20.1899 18.8256 20.234 18.8869 20.2831L18.9653 20.3762L19.1564 20.5085C19.5485 20.7756 19.9823 20.9349 20.4259 21.0109C20.4455 21.0158 20.4651 21.0182 20.4847 21.0207C20.6072 21.0403 20.7273 21.0525 20.8523 21.0574C20.867 21.0574 20.8817 21.0623 20.8988 21.0623C20.9233 21.0623 20.9454 21.0574 20.9699 21.0574C21.1341 21.0574 21.2958 21.0452 21.4576 21.0207C21.5041 21.0133 21.5507 21.0035 21.5997 20.9962C21.7467 20.9668 21.8913 20.9251 22.0335 20.8761C22.0874 20.8565 22.1437 20.8393 22.1977 20.8173C22.3324 20.7609 22.4648 20.6923 22.5922 20.6163C22.6437 20.5869 22.6951 20.5624 22.7441 20.5306C22.9157 20.4154 23.0799 20.288 23.2294 20.1385L24.5674 18.8004L25.5501 17.8177L25.9128 17.455C26.5352 16.8301 26.8489 16.0116 26.8489 15.1931C26.8489 14.3746 26.5377 13.5537 25.9128 12.9312C24.6654 11.6839 22.6363 11.6839 21.389 12.9312L20.938 13.3821C20.9086 13.3699 20.8768 13.3625 20.8474 13.3503C20.5803 13.24 20.3205 13.1444 20.0705 13.0709C20.0117 13.0538 19.9504 13.044 19.8892 13.0268C19.8818 13.0268 19.8769 13.0243 19.8696 13.0219C18.7962 12.7376 17.6836 12.6715 16.5931 12.8185L18.9334 10.4782C21.5384 7.87316 25.7608 7.87316 28.3634 10.4782C29.6647 11.7794 30.3165 13.4875 30.3165 15.1931C30.3165 16.8988 29.6647 18.6068 28.3634 19.9081L26.0231 22.2484L25.68 22.5915C25.4472 22.8243 25.1997 23.0277 24.9448 23.2189C24.5698 23.4983 24.1704 23.736 23.7562 23.9271C23.222 24.1746 22.6608 24.3437 22.0898 24.4442L21.8497 24.476C20.791 24.6157 19.7274 24.4932 18.7398 24.1452C18.5585 24.079 18.3747 24.0202 18.1983 23.9394L18.2007 23.932Z" fill="#FBF7F8"/>
<path id="Vector_3" d="M10.3071 28.529C9.00587 27.2277 8.354 25.5197 8.354 23.814C8.354 22.1084 9.00587 20.4003 10.3071 19.0991L12.6475 16.7587L12.9906 16.4157C13.2234 16.1828 13.4709 15.9794 13.7257 15.7883C14.1007 15.5089 14.5001 15.2712 14.9143 15.0801C15.4485 14.8326 16.0097 14.6635 16.5782 14.563L16.8184 14.5311C17.8771 14.3914 18.9431 14.514 19.9307 14.862C20.112 14.9281 20.2934 14.9869 20.4698 15.0678C20.7418 15.1928 21.009 15.3325 21.2663 15.4967C21.6755 15.7564 22.0627 16.0579 22.4181 16.4132C22.7734 16.7685 23.0773 17.1582 23.3346 17.565L22.8739 18.0257L21.9941 18.9055C21.8814 19.0182 21.749 19.1015 21.6118 19.1701C21.5873 19.1824 21.5652 19.1971 21.5383 19.2069C21.4133 19.2608 21.2834 19.2902 21.1511 19.3074C21.1045 19.3123 21.058 19.3172 21.0114 19.3172C20.9379 19.3196 20.8668 19.3074 20.7957 19.3C20.7075 19.2878 20.6242 19.2804 20.5237 19.251C20.5041 19.2461 20.487 19.2339 20.4698 19.2265C20.3914 19.1971 20.313 19.1628 20.237 19.1211C20.1855 19.0917 20.1341 19.055 20.0851 19.0157C20.0459 18.9643 20.0091 18.9128 19.9625 18.8638C19.9062 18.805 19.84 18.7633 19.7787 18.7119L19.7003 18.6187L19.5092 18.4889C19.1171 18.2218 18.6833 18.0625 18.2398 17.984C18.2202 17.9816 18.2006 17.9767 18.1809 17.9742C18.0584 17.9546 17.9359 17.9424 17.8109 17.9375C17.7962 17.9375 17.7815 17.9326 17.7692 17.9326C17.7472 17.9326 17.7251 17.9375 17.7031 17.9375C17.5364 17.9375 17.3722 17.9497 17.2105 17.9742C17.1639 17.9816 17.1174 17.9889 17.0708 17.9987C16.9238 18.0282 16.7792 18.0698 16.6346 18.1188C16.5807 18.1384 16.5243 18.1556 16.4704 18.1776C16.3356 18.234 16.2058 18.3026 16.0759 18.3786C16.0244 18.408 15.9729 18.4325 15.9239 18.4668C15.7524 18.5795 15.5882 18.7094 15.4387 18.8589L14.1007 20.1969L13.118 21.1772L12.7553 21.5399C12.1328 22.1648 11.8192 22.9833 11.8192 23.8018C11.8192 24.6203 12.1304 25.4412 12.7553 26.0637C14.0027 27.3111 16.0318 27.3111 17.2791 26.0637L17.73 25.6128C17.7594 25.625 17.7913 25.6324 17.8232 25.6446C18.0903 25.7549 18.35 25.8505 18.5976 25.924C18.6564 25.9412 18.7176 25.951 18.7789 25.9681C18.7862 25.9681 18.7911 25.9706 18.7985 25.973C19.8719 26.2573 20.9844 26.3235 22.075 26.1764L19.7346 28.5168C17.1296 31.1218 12.9072 31.1218 10.3047 28.5168L10.3071 28.529Z" fill="#FBF7F8"/>
</g>
</g>
</g>
<defs>
<clipPath id="clip0_725_97719">
<rect width="38.5358" height="38.5358" fill="white" transform="translate(0.0688477 0.231934)"/>
</clipPath>
</defs>
</svg>
