<svg width="39" height="40" viewBox="0 0 39 40" fill="none" xmlns="http://www.w3.org/2000/svg">
<g id="Layer_16" clip-path="url(#clip0_725_97755)">
<g id="Group 23467">
<path id="Vector" d="M35.8968 3.43937C33.1864 0.731445 28.8267 0.731445 20.1075 0.731445H18.566C9.84678 0.731445 5.48715 0.731445 2.77677 3.43937C0.0688477 6.14974 0.0688477 10.5094 0.0688477 19.2286V20.7701C0.0688477 29.4893 0.0688477 33.849 2.77677 36.5594C5.48469 39.2673 9.84433 39.2673 18.566 39.2673H20.1075C28.8267 39.2673 33.1864 39.2673 35.8968 36.5594C38.6047 33.8514 38.6047 29.4918 38.6047 20.7701V19.2286C38.6047 10.5094 38.6047 6.14974 35.8968 3.43937Z" fill="#0AD8DD"/>
<g id="Group">
<path id="Vector_2" d="M18.2007 24.4315C17.9287 24.3065 17.6591 24.1669 17.4018 24.0027C16.9926 23.7429 16.6054 23.4415 16.25 23.0861C15.8947 22.7308 15.5908 22.3412 15.3335 21.9343L15.7942 21.4736L16.674 20.5939C16.7867 20.4811 16.919 20.3978 17.0538 20.3292C17.0783 20.3169 17.1028 20.3022 17.1273 20.29C17.2499 20.2361 17.3798 20.2067 17.5121 20.1895C17.5611 20.1822 17.6077 20.1797 17.6567 20.1797C17.7277 20.1773 17.7964 20.1895 17.8674 20.1969C17.9556 20.2091 18.039 20.2165 18.1443 20.2483C18.1615 20.2532 18.1762 20.263 18.1909 20.2679C18.2742 20.2973 18.3526 20.3317 18.4311 20.3758C18.4825 20.4052 18.5315 20.4419 18.5781 20.4787C18.6173 20.5302 18.6565 20.5841 18.7031 20.6331C18.7594 20.6894 18.8256 20.7336 18.8869 20.7826L18.9653 20.8757L19.1564 21.008C19.5485 21.2751 19.9823 21.4344 20.4259 21.5104C20.4455 21.5153 20.4651 21.5177 20.4847 21.5202C20.6072 21.5398 20.7273 21.5521 20.8523 21.557C20.867 21.557 20.8817 21.5619 20.8988 21.5619C20.9233 21.5619 20.9454 21.557 20.9699 21.557C21.1341 21.557 21.2958 21.5447 21.4576 21.5202C21.5041 21.5128 21.5507 21.503 21.5997 21.4957C21.7467 21.4663 21.8913 21.4246 22.0335 21.3756C22.0874 21.356 22.1437 21.3389 22.1977 21.3168C22.3324 21.2604 22.4648 21.1918 22.5922 21.1158C22.6437 21.0864 22.6951 21.0619 22.7441 21.0301C22.9157 20.9149 23.0799 20.7875 23.2294 20.638L24.5674 19.2999L25.5501 18.3173L25.9128 17.9546C26.5352 17.3297 26.8489 16.5112 26.8489 15.6926C26.8489 14.8741 26.5377 14.0532 25.9128 13.4307C24.6654 12.1834 22.6363 12.1834 21.389 13.4307L20.938 13.8816C20.9086 13.8694 20.8768 13.862 20.8474 13.8498C20.5803 13.7395 20.3205 13.6439 20.0705 13.5704C20.0117 13.5533 19.9504 13.5435 19.8892 13.5263C19.8818 13.5263 19.8769 13.5239 19.8696 13.5214C18.7962 13.2371 17.6836 13.171 16.5931 13.318L18.9334 10.9777C21.5384 8.37268 25.7608 8.37268 28.3634 10.9777C29.6647 12.2789 30.3165 13.987 30.3165 15.6926C30.3165 17.3983 29.6647 19.1063 28.3634 20.4076L26.0231 22.748L25.68 23.091C25.4472 23.3238 25.1997 23.5272 24.9448 23.7184C24.5698 23.9978 24.1704 24.2355 23.7562 24.4266C23.222 24.6741 22.6608 24.8432 22.0898 24.9437L21.8497 24.9756C20.791 25.1152 19.7274 24.9927 18.7398 24.6447C18.5585 24.5786 18.3747 24.5197 18.1983 24.4389L18.2007 24.4315Z" fill="white"/>
<path id="Vector_3" d="M10.3071 29.0285C9.00587 27.7273 8.354 26.0192 8.354 24.3136C8.354 22.6079 9.00587 20.8999 10.3071 19.5986L12.6475 17.2582L12.9906 16.9152C13.2234 16.6824 13.4709 16.479 13.7257 16.2878C14.1007 16.0084 14.5001 15.7707 14.9143 15.5796C15.4485 15.3321 16.0097 15.163 16.5782 15.0625L16.8184 15.0306C17.8771 14.891 18.9431 15.0135 19.9307 15.3615C20.112 15.4276 20.2934 15.4865 20.4698 15.5673C20.7418 15.6923 21.009 15.832 21.2663 15.9962C21.6755 16.2559 22.0627 16.5574 22.4181 16.9127C22.7734 17.2681 23.0773 17.6577 23.3346 18.0645L22.8739 18.5252L21.9941 19.405C21.8814 19.5177 21.749 19.601 21.6118 19.6696C21.5873 19.6819 21.5652 19.6966 21.5383 19.7064C21.4133 19.7603 21.2834 19.7897 21.1511 19.8069C21.1045 19.8118 21.058 19.8167 21.0114 19.8167C20.9379 19.8191 20.8668 19.8069 20.7957 19.7995C20.7075 19.7873 20.6242 19.7799 20.5237 19.7505C20.5041 19.7456 20.487 19.7334 20.4698 19.726C20.3914 19.6966 20.313 19.6623 20.237 19.6206C20.1855 19.5912 20.1341 19.5545 20.0851 19.5153C20.0459 19.4638 20.0091 19.4123 19.9625 19.3633C19.9062 19.3045 19.84 19.2628 19.7787 19.2114L19.7003 19.1183L19.5092 18.9884C19.1171 18.7213 18.6833 18.562 18.2398 18.4836C18.2202 18.4811 18.2006 18.4762 18.1809 18.4738C18.0584 18.4541 17.9359 18.4419 17.8109 18.437C17.7962 18.437 17.7815 18.4321 17.7692 18.4321C17.7472 18.4321 17.7251 18.437 17.7031 18.437C17.5364 18.437 17.3722 18.4492 17.2105 18.4738C17.1639 18.4811 17.1174 18.4885 17.0708 18.4983C16.9238 18.5277 16.7792 18.5693 16.6346 18.6183C16.5807 18.6379 16.5243 18.6551 16.4704 18.6772C16.3356 18.7335 16.2058 18.8021 16.0759 18.8781C16.0244 18.9075 15.9729 18.932 15.9239 18.9663C15.7524 19.0791 15.5882 19.2089 15.4387 19.3584L14.1007 20.6965L13.118 21.6767L12.7553 22.0394C12.1328 22.6643 11.8192 23.4828 11.8192 24.3013C11.8192 25.1198 12.1304 25.9408 12.7553 26.5632C14.0027 27.8106 16.0318 27.8106 17.2791 26.5632L17.73 26.1123C17.7594 26.1246 17.7913 26.1319 17.8232 26.1442C18.0903 26.2544 18.35 26.35 18.5976 26.4235C18.6564 26.4407 18.7176 26.4505 18.7789 26.4676C18.7862 26.4676 18.7911 26.4701 18.7985 26.4725C19.8719 26.7568 20.9844 26.823 22.075 26.6759L19.7346 29.0163C17.1296 31.6213 12.9072 31.6213 10.3047 29.0163L10.3071 29.0285Z" fill="white"/>
</g>
</g>
</g>
<defs>
<clipPath id="clip0_725_97755">
<rect width="38.5358" height="38.5358" fill="white" transform="translate(0.0688477 0.731445)"/>
</clipPath>
</defs>
</svg>
