<svg width="19" height="19" viewBox="0 0 19 19" fill="none" xmlns="http://www.w3.org/2000/svg">
<path d="M9.51156 17.5C14.0899 17.5 17.8014 13.9183 17.8014 9.5C17.8014 5.08172 14.0899 1.5 9.51156 1.5M9.51156 17.5C4.93318 17.5 1.22168 13.9183 1.22168 9.5C1.22168 5.08172 4.93318 1.5 9.51156 1.5M9.51156 17.5C11.4393 17.5 13.002 13.9183 13.002 9.5C13.002 5.08172 11.4393 1.5 9.51156 1.5M9.51156 17.5C7.58382 17.5 6.02108 13.9183 6.02108 9.5C6.02108 5.08172 7.58382 1.5 9.51156 1.5M1.65799 6.97368H17.3651M1.65799 12.0263H17.3651" stroke="white" stroke-width="1.25" stroke-linecap="round"/>
</svg>
