<svg width="112" height="38" viewBox="0 0 112 38" fill="none" xmlns="http://www.w3.org/2000/svg">
<g id="Layer_1" clip-path="url(#clip0_725_98307)">
<path id="Vector" d="M55.0097 20.7636H51.796C50.5143 20.7636 49.4717 21.8262 49.4717 23.1296V34.8441C49.4717 36.216 50.4493 37.2101 51.796 37.2101H55.0097C56.2915 37.2101 57.3341 36.1499 57.3341 34.8441V31.7508H54.8472V34.3624C54.8472 34.6481 54.6173 34.8819 54.3364 34.8819H52.5484C52.2674 34.8819 52.0375 34.6481 52.0375 34.3624V23.557C52.0375 23.2713 52.2674 23.0375 52.5484 23.0375H54.3364C54.6173 23.0375 54.8472 23.2713 54.8472 23.557V26.3457H57.3341V23.1273C57.3341 21.8215 56.2915 20.7612 55.0097 20.7612V20.7636Z" fill="#D5D4D7"/>
<path id="Vector_2" d="M65.6027 24.0366H58.3115V26.3507H60.7125V37.2175H63.1994V26.3507H65.6027V24.0366Z" fill="#D5D4D7"/>
<path id="Vector_3" d="M25.4177 31.4417H25.1739V24.0366H22.687V37.2175H24.8767L27.6028 30.1548H27.8466V37.2151H30.3335V24.0366H28.1159L25.4177 31.4417Z" fill="#D5D4D7"/>
<path id="Vector_4" d="M14.6808 20.7612L11.6436 37.2125H14.2767L16.3573 23.439H16.6011L18.7722 37.2125H21.4124L18.3984 20.7612H14.6808Z" fill="#D5D4D7"/>
<path id="Vector_5" d="M68.1083 24.0366L65.3984 37.2151H67.8993L68.2081 35.5291H71.5379L71.8444 37.2151H74.3545L71.6587 24.0366H68.1106H68.1083ZM68.6098 33.3426L69.7662 26.3507H70.0007L71.1432 33.3426H68.6121H68.6098Z" fill="#D5D4D7"/>
<path id="Vector_6" d="M39.8539 24.0366L37.144 37.2151H39.6449L39.9537 35.5291H43.2835L43.59 37.2151H46.1001L43.4043 24.0366H39.8562H39.8539ZM40.3554 33.3426L41.5118 26.3507H41.7463L42.8888 33.3426H40.3577H40.3554Z" fill="#D5D4D7"/>
<path id="Vector_7" d="M37.8289 24.0366H32.1934V37.2151H34.6826V26.3507H37.8289V24.0366Z" fill="#D5D4D7"/>
<path id="Vector_8" d="M89.4667 24.0366H86.7174C85.4357 24.0366 84.3931 25.0992 84.3931 26.4027V34.8514C84.3931 36.1549 85.4357 37.2175 86.7174 37.2175H89.4667C90.7485 37.2175 91.7911 36.1572 91.7911 34.8514V26.4027C91.7911 25.0968 90.7485 24.0366 89.4667 24.0366ZM89.3042 34.3697C89.3042 34.6554 89.0743 34.8892 88.7933 34.8892H87.3885C87.1075 34.8892 86.8777 34.6554 86.8777 34.3697V26.882C86.8777 26.5963 87.1075 26.3625 87.3885 26.3625H88.7933C89.0743 26.3625 89.3042 26.5986 89.3042 26.8914V34.3697Z" fill="#D5D4D7"/>
<path id="Vector_9" d="M0.30957 0.853516V37.2177H7.18977V7.4888H105.119V37.2177H112V0.853516H0.30957Z" fill="#D5D4D7"/>
<path id="Vector_10" d="M101.481 24.0366H98.799L96.5512 29.6306H96.1193V24.0366H93.6533V37.2175H96.1193V31.8171H96.6488L98.9336 37.2175H101.62L98.7386 30.6082L101.481 24.0366Z" fill="#D5D4D7"/>
<path id="Vector_11" d="M81.0934 30.7759V30.5303H81.0911C82.0524 30.3272 82.7769 29.4559 82.7769 28.4146V26.3957C82.7769 25.0969 81.7343 24.0391 80.4525 24.0391H75.625V37.2175H80.5686C81.8504 37.2175 82.8953 36.1573 82.8953 34.8515V32.9884C82.8953 31.8928 82.1197 30.979 81.0957 30.7782L81.0934 30.7759ZM78.1119 26.3555H79.7791C80.0601 26.3555 80.29 26.5893 80.29 26.875V29.1135C80.29 29.3992 80.0601 29.633 79.7791 29.633H78.1119V26.3555ZM80.4061 34.3698C80.4061 34.6555 80.1762 34.8893 79.8952 34.8893H78.1119V31.8196H79.8952C80.1762 31.8196 80.4061 32.0534 80.4061 32.3391V34.3698Z" fill="#D5D4D7"/>
</g>
<defs>
<clipPath id="clip0_725_98307">
<rect width="111.69" height="36.3642" fill="white" transform="translate(0.30957 0.853516)"/>
</clipPath>
</defs>
</svg>
