<svg width="1107" height="139" viewBox="0 0 1107 139" fill="none" xmlns="http://www.w3.org/2000/svg">
<g clip-path="url(#clip0_577_1902)">
<path d="M0 28.0898V138.56H36.37V63.5098H263.81V138.56H300.18V28.0898H0Z" fill="white"/>
<path d="M707.46 0.0200195H679.94C668.96 0.0200195 660.03 8.96002 660.03 19.94V118.58C660.03 130.12 668.4 138.5 679.94 138.5H707.46C718.44 138.5 727.37 129.56 727.37 118.58V92.54H706.07V114.54C706.07 116.95 704.11 118.91 701.7 118.91H686.4C683.99 118.91 682.03 116.95 682.03 114.54V23.57C682.03 21.16 683.99 19.19 686.4 19.19H701.7C704.11 19.19 706.07 21.15 706.07 23.57V47.05H727.37V19.94C727.37 8.95002 718.44 0.0200195 707.46 0.0200195Z" fill="white"/>
<path d="M798.17 27.5698H735.73V47.0498H756.3V138.55H777.6V47.0498H798.17V27.5698Z" fill="white"/>
<path d="M454.08 89.9301H451.99L451.98 27.5801H430.69V138.55H449.43L472.78 79.0801H474.86V138.55H496.17V27.5801H477.18L454.08 89.9301Z" fill="white"/>
<path d="M362.14 0L336.13 138.53H358.67L376.49 22.54H378.57L397.17 138.53H419.78L393.97 0H362.14Z" fill="white"/>
<path d="M819.62 27.5698L796.41 138.55H817.83L820.48 124.36H848.99L851.61 138.55H873.1L850.02 27.5698H819.64H819.62ZM823.91 105.94L833.81 47.0598H835.82L845.6 105.94H823.92H823.91Z" fill="white"/>
<path d="M577.69 27.5698L554.48 138.55H575.9L578.55 124.36H607.06L609.68 138.55H631.17L608.09 27.5698H577.71H577.69ZM581.98 105.94L591.88 47.0598H593.89L603.67 105.94H581.99H581.98Z" fill="white"/>
<path d="M560.35 27.5698H512.09V138.55H533.4V47.0598H560.35V27.5698Z" fill="white"/>
<path d="M1002.52 27.5698H978.97C967.99 27.5698 959.06 36.5098 959.06 47.4898V118.62C959.06 129.6 967.99 138.54 978.97 138.54H1002.52C1013.5 138.54 1022.43 129.6 1022.43 118.62V47.4998C1022.43 36.5098 1013.5 27.5798 1002.52 27.5798V27.5698ZM1001.13 114.58C1001.13 116.99 999.17 118.95 996.76 118.95H984.74C982.33 118.95 980.37 116.99 980.37 114.58V51.5298C980.37 49.1198 982.33 47.1498 984.74 47.1498H996.76C999.17 47.1498 1001.13 49.1498 1001.13 51.5998V114.57V114.58Z" fill="white"/>
<path d="M1105.39 27.5801H1082.42L1063.17 74.6801H1059.48V27.5801H1038.35V138.56H1059.48V93.1001H1064.01L1083.57 138.56H1106.57L1081.9 82.9001L1105.39 27.5801Z" fill="white"/>
<path d="M930.82 84.3298V82.2598H930.8C939.03 80.5498 945.24 73.2098 945.24 64.4398V47.4398C945.24 36.4998 936.31 27.5898 925.33 27.5898H883.99V138.56H926.32C937.3 138.56 946.23 129.62 946.23 118.64V102.95C946.23 93.7198 939.58 86.0198 930.82 84.3298ZM905.29 47.0998H919.56C921.97 47.0998 923.93 49.0598 923.93 51.4798V70.3398C923.93 72.7498 921.97 74.7098 919.56 74.7098H905.29V47.0998ZM924.93 114.59C924.93 117 922.97 118.96 920.56 118.96H905.3V93.1098H920.56C922.97 93.1098 924.93 95.0698 924.93 97.4898V114.58V114.59Z" fill="white"/>
</g>
<defs>
<clipPath id="clip0_577_1902">
<rect width="1106.57" height="138.56" fill="white"/>
</clipPath>
</defs>
</svg>
