<svg width="86" height="29" viewBox="0 0 86 29" fill="none" xmlns="http://www.w3.org/2000/svg">
<g id="Layer_1" clip-path="url(#clip0_725_98004)">
<path id="Vector" d="M42.4685 16.0809H40.0137C39.0347 16.0809 38.2383 16.8926 38.2383 17.8882V26.8361C38.2383 27.8841 38.985 28.6434 40.0137 28.6434H42.4685C43.4475 28.6434 44.2439 27.8336 44.2439 26.8361V24.4733H42.3443V26.4682C42.3443 26.6864 42.1687 26.865 41.9541 26.865H40.5884C40.3738 26.865 40.1982 26.6864 40.1982 26.4682V18.2146C40.1982 17.9964 40.3738 17.8178 40.5884 17.8178H41.9541C42.1687 17.8178 42.3443 17.9964 42.3443 18.2146V20.3448H44.2439V17.8864C44.2439 16.8889 43.4475 16.0791 42.4685 16.0791V16.0809Z" fill="#F2F2F2"/>
<path id="Vector_2" d="M50.56 18.5811H44.9907V20.3486H46.8247V28.6491H48.7243V20.3486H50.56V18.5811Z" fill="#F2F2F2"/>
<path id="Vector_3" d="M19.8651 24.2373H19.6789V18.5811H17.7793V28.6491H19.4519L21.5341 23.2543H21.7204V28.6473H23.62V18.5811H21.9261L19.8651 24.2373Z" fill="#F2F2F2"/>
<path id="Vector_4" d="M11.6637 16.0793L9.34375 28.6454H11.3551L12.9443 18.1247H13.1305L14.7889 28.6454H16.8055L14.5033 16.0793H11.6637Z" fill="#F2F2F2"/>
<path id="Vector_5" d="M52.4737 18.5811L50.4038 28.6473H52.314L52.5499 27.3595H55.0934L55.3275 28.6473H57.2448L55.1856 18.5811H52.4754H52.4737ZM52.8568 25.6893L53.7401 20.3486H53.9192L54.7918 25.6893H52.8586H52.8568Z" fill="#F2F2F2"/>
<path id="Vector_6" d="M30.8921 18.5811L28.8223 28.6473H30.7325L30.9684 27.3595H33.5118L33.7459 28.6473H35.6633L33.6041 18.5811H30.8939H30.8921ZM31.2752 25.6893L32.1585 20.3486H32.3377L33.2103 25.6893H31.277H31.2752Z" fill="#F2F2F2"/>
<path id="Vector_7" d="M29.3452 18.5811H25.0405V28.6473H26.9419V20.3486H29.3452V18.5811Z" fill="#F2F2F2"/>
<path id="Vector_8" d="M68.788 18.5811H66.688C65.709 18.5811 64.9126 19.3927 64.9126 20.3883V26.8418C64.9126 27.8374 65.709 28.6491 66.688 28.6491H68.788C69.7671 28.6491 70.5635 27.8392 70.5635 26.8418V20.3883C70.5635 19.3909 69.7671 18.5811 68.788 18.5811ZM68.6639 26.4739C68.6639 26.6921 68.4883 26.8707 68.2737 26.8707H67.2006C66.986 26.8707 66.8104 26.6921 66.8104 26.4739V20.7545C66.8104 20.5362 66.986 20.3577 67.2006 20.3577H68.2737C68.4883 20.3577 68.6639 20.538 68.6639 20.7617V26.4739Z" fill="#F2F2F2"/>
<path id="Vector_9" d="M0.686523 0.873047V28.6494H5.94188V5.94133H80.7443V28.6494H85.9996V0.873047H0.686523Z" fill="#F2F2F2"/>
<path id="Vector_10" d="M77.9649 18.5811H75.9163L74.1994 22.8539H73.8695V18.5811H71.9858V28.6491H73.8695V24.5241H74.2739L76.0192 28.6491H78.0713L75.8702 23.6006L77.9649 18.5811Z" fill="#F2F2F2"/>
<path id="Vector_11" d="M62.3923 23.7286V23.541H62.3905C63.1248 23.3859 63.6782 22.7204 63.6782 21.9249V20.3828C63.6782 19.3908 62.8818 18.5828 61.9028 18.5828H58.2153V28.649H61.9915C62.9705 28.649 63.7687 27.8391 63.7687 26.8417V25.4186C63.7687 24.5817 63.1763 23.8837 62.3941 23.7304L62.3923 23.7286ZM60.1149 20.3522H61.3884C61.603 20.3522 61.7786 20.5307 61.7786 20.749V22.4588C61.7786 22.6771 61.603 22.8556 61.3884 22.8556H60.1149V20.3522ZM61.8673 26.4738C61.8673 26.692 61.6917 26.8706 61.4771 26.8706H60.1149V24.5258H61.4771C61.6917 24.5258 61.8673 24.7044 61.8673 24.9226V26.4738Z" fill="#F2F2F2"/>
</g>
<defs>
<clipPath id="clip0_725_98004">
<rect width="85.3131" height="27.7764" fill="white" transform="translate(0.686523 0.873047)"/>
</clipPath>
</defs>
</svg>
