<svg width="125" height="80" viewBox="0 0 125 80" fill="none" xmlns="http://www.w3.org/2000/svg">
<g clip-path="url(#clip0_850_1656)">
<path fill-rule="evenodd" clip-rule="evenodd" d="M67.5898 54.26C67.5898 54.26 74.0299 37.69 76.4099 32.09C78.7899 26.61 79.2698 24.22 87.9698 22.2C96.5498 20.05 100.96 18.86 102.75 18.5C102.75 18.5 106.09 17.9 106.21 19.81C106.33 21.12 105.02 23.27 104.06 24.58C104.06 24.58 102.99 26.61 97.2698 27.32C97.2698 27.32 87.1398 29.11 84.3998 30.9C81.5398 32.81 80.5898 33.16 78.3198 36.38C76.0498 39.6 67.5898 54.26 67.5898 54.26Z" fill="#D72F30"/>
<path fill-rule="evenodd" clip-rule="evenodd" d="M67.5898 54.2599C67.5898 54.2599 83.3199 24.2199 86.6599 17.5499C89.8799 10.7599 90.9499 7.29989 101.8 4.79989C112.52 2.16989 118.96 0.619886 121.11 0.139886C121.11 0.139886 124.81 -0.690114 124.92 1.68989C125.04 3.35989 123.25 6.21989 121.94 7.76989C121.94 7.76989 120.63 10.2699 113.6 11.2299C113.6 11.2299 100.96 13.1399 97.3898 15.1599C93.6898 17.1899 92.4998 18.6199 89.6398 22.5499C86.8998 26.5999 67.5898 54.2599 67.5898 54.2599Z" fill="#231F20"/>
<path fill-rule="evenodd" clip-rule="evenodd" d="M39.93 9.19995L33.38 25.41L26.82 9.31995V9.19995H19.91V9.31995L13.47 25.29L6.91 9.19995H0L10.01 33.7599H16.93L23.36 17.78L29.92 33.7599H36.83L46.85 9.19995H39.93Z" fill="#231F20"/>
<path fill-rule="evenodd" clip-rule="evenodd" d="M72.83 9.19995L68.66 19.33H57.22L61.27 9.19995H54.35L44.46 33.7599H51.26L55.19 24.22H66.75L62.82 33.7599H69.73L79.62 9.19995H72.83Z" fill="#231F20"/>
<path fill-rule="evenodd" clip-rule="evenodd" d="M12.2801 50.4399L14.3001 44.1299H15.6201L17.5201 50.4399L19.6701 44.1299H21.2201L18.2401 52.8299H16.8101L15.0201 46.8699H14.9001L12.9901 52.8299H11.5601L8.58008 44.1299H10.1301L12.2801 50.4399Z" fill="#231F20"/>
<path fill-rule="evenodd" clip-rule="evenodd" d="M29.6799 46.27C29.0799 45.56 28.3699 45.32 27.4199 45.32C26.5799 45.32 25.8699 45.56 25.2699 46.27C24.6699 46.87 24.4399 47.58 24.4399 48.42C24.4399 49.26 24.6799 50.09 25.2699 50.68C25.8699 51.28 26.5799 51.51 27.4199 51.51C28.3699 51.51 29.0899 51.27 29.6799 50.68C30.2799 50.08 30.5199 49.25 30.5199 48.42C30.5199 47.59 30.2799 46.87 29.6799 46.27ZM30.7499 51.63C29.7999 52.46 28.7199 52.94 27.4099 52.94C26.2199 52.94 25.1499 52.46 24.1899 51.63C23.3599 50.8 22.8799 49.72 22.8799 48.41C22.8799 47.22 23.3599 46.15 24.1899 45.19C25.1399 44.36 26.2199 44 27.4099 44C28.7199 44 29.7899 44.36 30.7499 45.19C31.5799 46.14 32.0599 47.22 32.0599 48.41C32.0599 49.72 31.5799 50.79 30.7499 51.63Z" fill="#231F20"/>
<path fill-rule="evenodd" clip-rule="evenodd" d="M39.81 48.1799C40.05 47.9399 40.29 47.5799 40.29 46.9899C40.29 46.3999 40.05 46.0399 39.81 45.7999C39.45 45.5599 38.98 45.5599 38.14 45.5599H36.23V48.5399H38.14C38.97 48.5399 39.45 48.4199 39.81 48.1799ZM41.72 46.9899C41.72 48.4199 41.12 49.2599 39.81 49.7299L42.07 52.8299H40.28L38.25 49.9699H36.22V52.8299H34.79V44.1299H38.01C39.32 44.1299 40.27 44.3699 40.87 44.8399C41.47 45.3199 41.7 46.0299 41.7 46.9899H41.72Z" fill="#231F20"/>
<path fill-rule="evenodd" clip-rule="evenodd" d="M44.8198 52.8299V44.1299H46.2498V51.3999H50.1798V52.8299H44.8198Z" fill="#231F20"/>
<path fill-rule="evenodd" clip-rule="evenodd" d="M59.1198 48.5399C59.1198 46.5099 57.9298 45.5599 55.6598 45.5599H54.2298V51.3999H55.8998C56.8498 51.3999 57.6898 51.1599 58.2798 50.6899C58.7598 50.2099 59.1198 49.4999 59.1198 48.5399ZM59.3598 45.3199C60.1898 46.0399 60.5498 47.1099 60.5498 48.4199C60.5498 49.8499 60.1898 50.7999 59.3598 51.6399C58.5298 52.4699 57.3298 52.8299 55.6598 52.8299H52.7998V44.1299H55.7798C57.3298 44.1299 58.5198 44.6099 59.3598 45.3199Z" fill="#231F20"/>
<path fill-rule="evenodd" clip-rule="evenodd" d="M10.0098 65.9401V57.3601H11.4398V61.0501H15.7398V57.3601H17.1598V65.9401H15.7398V62.4801H11.4398V65.9401H10.0098Z" fill="#231F20"/>
<path fill-rule="evenodd" clip-rule="evenodd" d="M26.7 59.3801C26.1 58.7801 25.39 58.4301 24.56 58.4301C23.73 58.4301 23.01 58.7901 22.41 59.3801C21.81 59.9801 21.58 60.6901 21.58 61.5301C21.58 62.4801 21.82 63.2001 22.41 63.7901C23.01 64.3901 23.72 64.7401 24.56 64.7401C25.4 64.7401 26.11 64.3801 26.7 63.7901C27.3 63.1901 27.65 62.4801 27.65 61.5301C27.65 60.7001 27.29 59.9801 26.7 59.3801ZM27.77 64.7401C26.94 65.5701 25.86 66.0501 24.55 66.0501C23.24 66.0501 22.17 65.5701 21.33 64.7401C20.5 63.9101 20.02 62.8301 20.02 61.5201C20.02 60.3301 20.5 59.2601 21.33 58.4201C22.17 57.5901 23.24 57.1101 24.55 57.1101C25.86 57.1101 26.93 57.5901 27.77 58.4201C28.72 59.2601 29.08 60.3301 29.08 61.5201C29.08 62.8301 28.72 63.9001 27.77 64.7401Z" fill="#231F20"/>
<path fill-rule="evenodd" clip-rule="evenodd" d="M35.8798 64.6301C36.3598 64.6301 36.8298 64.5101 37.1898 64.3901C37.5498 64.2701 37.8998 63.9101 38.2598 63.5501L39.2098 64.5001C38.3798 65.5701 37.1798 66.0501 35.8698 66.0501C34.5598 66.0501 33.4898 65.5701 32.6498 64.7401C31.8098 63.9101 31.3398 62.8301 31.3398 61.6401C31.3398 60.3301 31.8198 59.2601 32.6498 58.4201C33.5998 57.5901 34.6798 57.1101 35.9898 57.1101C37.2998 57.1101 38.4898 57.5901 39.3298 58.5401L38.4998 59.6101C38.0198 59.2501 37.6698 58.8901 37.3098 58.7801C36.9498 58.6601 36.4798 58.5401 35.9998 58.5401C35.1698 58.5401 34.4498 58.7801 33.8598 59.3701C33.2598 59.9701 32.9098 60.6801 32.9098 61.5201C32.9098 62.4701 33.2698 63.1901 33.7398 63.7901C34.3398 64.3901 35.0498 64.6201 35.8898 64.6201" fill="#231F20"/>
<path fill-rule="evenodd" clip-rule="evenodd" d="M42.0801 57.3601H43.5101V61.5301L47.4401 57.3601H49.2301L45.7701 61.0501L49.3501 65.9401H47.5601L44.7001 62.1301L43.5101 63.5601V65.9401H42.0801V57.3601Z" fill="#231F20"/>
<path fill-rule="evenodd" clip-rule="evenodd" d="M57.81 57.3601V58.6701H53.16V60.9301H57.33V62.2401H53.16V64.6301H57.93V65.9401H51.73V57.3601H57.81Z" fill="#231F20"/>
<path fill-rule="evenodd" clip-rule="evenodd" d="M64.13 65.9401H62.7V62.6001L59.48 57.3601H61.03L63.41 61.2901L65.8 57.3601H67.35L64.13 62.6001V65.9401Z" fill="#231F20"/>
<path fill-rule="evenodd" clip-rule="evenodd" d="M11.4398 71.9001V74.2801H15.2598V75.7101H11.4398V79.1701H10.0098V70.5901H15.7298V71.9001H11.4398Z" fill="#231F20"/>
<path fill-rule="evenodd" clip-rule="evenodd" d="M24.5501 72.6101C24.0701 72.0101 23.2401 71.6601 22.4101 71.6601C21.5801 71.6601 20.8601 72.0201 20.2601 72.6101C19.6601 73.2101 19.4301 73.9201 19.4301 74.8701C19.4301 75.7001 19.6701 76.4201 20.2601 77.0201C20.8601 77.6201 21.5701 77.9701 22.4101 77.9701C23.2501 77.9701 24.0801 77.6101 24.5501 77.0201C25.1501 76.4201 25.5001 75.7101 25.5001 74.8701C25.5001 73.9201 25.1401 73.2001 24.5501 72.6101ZM25.6201 77.9701C24.7901 78.9201 23.7101 79.2801 22.4001 79.2801C21.0901 79.2801 20.0201 78.9201 19.1801 77.9701C18.3501 77.1401 17.8701 76.0601 17.8701 74.8701C17.8701 73.5601 18.3501 72.4901 19.1801 71.6501C20.0201 70.8201 21.0901 70.3401 22.4001 70.3401C23.7101 70.3401 24.7801 70.8201 25.6201 71.6501C26.5701 72.4801 26.9301 73.5601 26.9301 74.8701C26.9301 76.0601 26.5701 77.1401 25.6201 77.9701Z" fill="#231F20"/>
<path fill-rule="evenodd" clip-rule="evenodd" d="M34.81 74.6401C35.05 74.4001 35.17 73.9301 35.17 73.4501C35.17 72.8501 35.05 72.5001 34.81 72.2601C34.45 72.0201 33.86 71.9001 33.14 71.9001H31.23V75.0001H33.14C33.85 75.0001 34.45 74.8801 34.81 74.6401ZM36.72 73.4501C36.72 74.7601 36.12 75.7201 34.81 76.0701L37.07 79.1701H35.28L33.13 76.3101H31.22V79.1701H29.79V70.5901H33.01C34.32 70.5901 35.27 70.8301 35.87 71.3001C36.47 71.6601 36.7 72.3701 36.7 73.4501H36.72Z" fill="#231F20"/>
<path fill-rule="evenodd" clip-rule="evenodd" d="M41.72 77.2601C42.08 77.7401 42.67 77.9801 43.27 77.9801C43.98 77.9801 44.58 77.7401 44.94 77.2601C45.3 76.7801 45.54 76.1901 45.54 75.3501V70.5801H46.97V75.4701C46.97 76.6601 46.61 77.6201 46.02 78.3301C45.31 78.9301 44.35 79.2801 43.28 79.2801C42.33 79.2801 41.37 78.9201 40.66 78.3301C40.06 77.6101 39.71 76.6601 39.71 75.4701V70.5801H41.14V75.3501C41.14 76.1801 41.38 76.7801 41.74 77.2601" fill="#231F20"/>
<path fill-rule="evenodd" clip-rule="evenodd" d="M51.7298 79.1701H50.2998V70.5901H52.5698L55.1898 76.0701L57.6898 70.5901H59.9598V79.1701H58.5298V72.5001L55.5498 78.4601H54.7098L51.7298 72.5001V79.1701Z" fill="#231F20"/>
</g>
<defs>
<clipPath id="clip0_850_1656">
<rect width="124.93" height="79.29" fill="white"/>
</clipPath>
</defs>
</svg>
