<svg width="90" height="58" viewBox="0 0 90 58" fill="none" xmlns="http://www.w3.org/2000/svg">
<g id="_Layer_" clip-path="url(#clip0_845_1585)">
<path id="Vector" fill-rule="evenodd" clip-rule="evenodd" d="M48.6919 39.6908C48.6919 39.6908 53.3313 27.57 55.0459 23.4736C56.7604 19.465 57.1062 17.7168 63.3737 16.2391C69.5548 14.6664 72.7318 13.796 74.0213 13.5326C74.0213 13.5326 76.4274 13.0937 76.5139 14.4909C76.6003 15.4491 75.6566 17.0218 74.965 17.9801C74.965 17.9801 74.1942 19.465 70.0735 19.9844C70.0735 19.9844 62.7758 21.2938 60.8019 22.6031C58.7415 24.0003 58.0571 24.2563 56.4218 26.6117C54.7865 28.9671 48.6919 39.6908 48.6919 39.6908Z" fill="#D72F30"/>
<path id="Vector_2" fill-rule="evenodd" clip-rule="evenodd" d="M48.6919 39.6908C48.6919 39.6908 60.0238 17.7168 62.43 12.8378C64.7497 7.87095 65.5205 5.33999 73.3369 3.51126C81.0596 1.58743 85.699 0.45362 87.2479 0.102504C87.2479 0.102504 89.9134 -0.504634 89.9926 1.23632C90.0791 2.45791 88.7896 4.54998 87.8458 5.68379C87.8458 5.68379 86.9021 7.51252 81.8377 8.21475C81.8377 8.21475 72.7318 9.6119 70.1599 11.0895C67.4944 12.5744 66.6371 13.6205 64.5768 16.4952C62.6029 19.4578 48.6919 39.6908 48.6919 39.6908Z" fill="#231F20"/>
<path id="Vector_3" fill-rule="evenodd" clip-rule="evenodd" d="M28.7657 6.72974L24.0471 18.5872L19.3212 6.81752V6.72974H14.3432V6.81752L9.70383 18.4994L4.97799 6.72974H0L7.21124 24.6952H12.1964L16.8286 13.0059L21.5545 24.6952H26.5325L33.7509 6.72974H28.7657Z" fill="#231F20"/>
<path id="Vector_4" fill-rule="evenodd" clip-rule="evenodd" d="M52.4671 6.72974L49.4631 14.1398H41.2216L44.1393 6.72974H39.1541L32.0293 24.6952H36.928L39.7592 17.7167H48.0871L45.2559 24.6952H50.2339L57.3587 6.72974H52.4671Z" fill="#231F20"/>
<path id="Vector_5" fill-rule="evenodd" clip-rule="evenodd" d="M8.84665 36.8965L10.3019 32.2808H11.2528L12.6216 36.8965L14.1704 32.2808H15.2871L13.1403 38.6447H12.1101L10.8206 34.285H10.7341L9.35813 38.6447H8.32796L6.18115 32.2808H7.29778L8.84665 36.8965Z" fill="#231F20"/>
<path id="Vector_6" fill-rule="evenodd" clip-rule="evenodd" d="M21.3817 33.846C20.9494 33.3267 20.4379 33.1511 19.7535 33.1511C19.1484 33.1511 18.6369 33.3267 18.2047 33.846C17.7724 34.2849 17.6067 34.8043 17.6067 35.4187C17.6067 36.0332 17.7796 36.6403 18.2047 37.0719C18.6369 37.5108 19.1484 37.6791 19.7535 37.6791C20.4379 37.6791 20.9566 37.5035 21.3817 37.0719C21.8139 36.633 21.9868 36.0259 21.9868 35.4187C21.9868 34.8116 21.8139 34.2849 21.3817 33.846ZM22.1525 37.7668C21.4681 38.374 20.6901 38.7251 19.7463 38.7251C18.8891 38.7251 18.1182 38.374 17.4266 37.7668C16.8287 37.1597 16.4829 36.3697 16.4829 35.4114C16.4829 34.541 16.8287 33.7583 17.4266 33.056C18.111 32.4489 18.8891 32.1855 19.7463 32.1855C20.6901 32.1855 21.4609 32.4489 22.1525 33.056C22.7504 33.7509 23.0962 34.541 23.0962 35.4114C23.0962 36.3697 22.7504 37.1524 22.1525 37.7668Z" fill="#231F20"/>
<path id="Vector_7" fill-rule="evenodd" clip-rule="evenodd" d="M28.6794 35.2433C28.8523 35.0677 29.0252 34.8044 29.0252 34.3728C29.0252 33.9412 28.8523 33.6779 28.6794 33.5024C28.4201 33.3268 28.0815 33.3268 27.4763 33.3268H26.1004V35.5066H27.4763C28.0743 35.5066 28.4201 35.4189 28.6794 35.2433ZM30.0554 34.3728C30.0554 35.4189 29.6231 36.0333 28.6794 36.3771L30.3075 38.6447H29.018L27.5556 36.5527H26.0932V38.6447H25.063V32.2808H27.3827C28.3264 32.2808 29.0108 32.4563 29.443 32.8001C29.8753 33.1512 30.041 33.6706 30.041 34.3728H30.0554Z" fill="#231F20"/>
<path id="Vector_8" fill-rule="evenodd" clip-rule="evenodd" d="M32.2886 38.6447V32.2808H33.3188V37.5987H36.1499V38.6447H32.2886Z" fill="#231F20"/>
<path id="Vector_9" fill-rule="evenodd" clip-rule="evenodd" d="M42.5901 35.5066C42.5901 34.0217 41.7328 33.3268 40.0975 33.3268H39.0673V37.5987H40.2704C40.9547 37.5987 41.5599 37.4231 41.9849 37.0793C42.3307 36.7282 42.5901 36.2089 42.5901 35.5066ZM42.763 33.1512C43.3609 33.6779 43.6202 34.4606 43.6202 35.4189C43.6202 36.4649 43.3609 37.1598 42.763 37.7743C42.165 38.3814 41.3005 38.6447 40.0975 38.6447H38.0371V32.2808H40.1839C41.3005 32.2808 42.1578 32.6319 42.763 33.1512Z" fill="#231F20"/>
<path id="Vector_10" fill-rule="evenodd" clip-rule="evenodd" d="M7.21143 48.2347V41.9585H8.2416V44.6577H11.3393V41.9585H12.3623V48.2347H11.3393V45.7037H8.2416V48.2347H7.21143Z" fill="#231F20"/>
<path id="Vector_11" fill-rule="evenodd" clip-rule="evenodd" d="M19.2347 43.4359C18.8024 42.997 18.2909 42.741 17.693 42.741C17.0951 42.741 16.5764 43.0043 16.1441 43.4359C15.7119 43.8748 15.5462 44.3941 15.5462 45.0086C15.5462 45.7035 15.7191 46.2302 16.1441 46.6618C16.5764 47.1007 17.0879 47.3567 17.693 47.3567C18.2981 47.3567 18.8096 47.0933 19.2347 46.6618C19.6669 46.2229 19.919 45.7035 19.919 45.0086C19.919 44.4014 19.6597 43.8748 19.2347 43.4359ZM20.0055 47.3567C19.4076 47.9638 18.6295 48.3149 17.6858 48.3149C16.7421 48.3149 15.9712 47.9638 15.3661 47.3567C14.7682 46.7495 14.4224 45.9595 14.4224 45.0013C14.4224 44.1308 14.7682 43.3481 15.3661 42.7336C15.9712 42.1265 16.7421 41.7754 17.6858 41.7754C18.6295 41.7754 19.4004 42.1265 20.0055 42.7336C20.6899 43.3481 20.9492 44.1308 20.9492 45.0013C20.9492 45.9595 20.6899 46.7422 20.0055 47.3567Z" fill="#231F20"/>
<path id="Vector_12" fill-rule="evenodd" clip-rule="evenodd" d="M25.8483 47.2762C26.1941 47.2762 26.5326 47.1884 26.792 47.1007C27.0513 47.0129 27.3035 46.7495 27.5628 46.4862L28.2472 47.1811C27.6493 47.9638 26.7848 48.3149 25.8411 48.3149C24.8973 48.3149 24.1265 47.9638 23.5214 47.3567C22.9162 46.7495 22.5776 45.9595 22.5776 45.089C22.5776 44.1308 22.9234 43.3481 23.5214 42.7336C24.2057 42.1265 24.9838 41.7754 25.9275 41.7754C26.8712 41.7754 27.7285 42.1265 28.3337 42.8214L27.7357 43.6041C27.3899 43.3408 27.1378 43.0774 26.8784 42.997C26.6191 42.9092 26.2805 42.8214 25.9347 42.8214C25.3368 42.8214 24.8181 42.997 24.3931 43.4286C23.9608 43.8675 23.7087 44.3868 23.7087 45.0013C23.7087 45.6962 23.968 46.2229 24.3066 46.6618C24.7388 47.1007 25.2503 47.2689 25.8555 47.2689" fill="#231F20"/>
<path id="Vector_13" fill-rule="evenodd" clip-rule="evenodd" d="M30.3145 41.9585H31.3446V45.0088L34.1758 41.9585H35.4653L32.9727 44.6577L35.5518 48.2347H34.2623L32.2019 45.4477L31.3446 46.4937V48.2347H30.3145V41.9585Z" fill="#231F20"/>
<path id="Vector_14" fill-rule="evenodd" clip-rule="evenodd" d="M41.6467 41.9585V42.9167H38.2968V44.5699H41.3009V45.5282H38.2968V47.2764H41.7331V48.2347H37.2666V41.9585H41.6467Z" fill="#231F20"/>
<path id="Vector_15" fill-rule="evenodd" clip-rule="evenodd" d="M46.1995 48.2347H45.1693V45.7915L42.8496 41.9585H43.9662L45.6808 44.8333L47.4026 41.9585H48.5192L46.1995 45.7915V48.2347Z" fill="#231F20"/>
<path id="Vector_16" fill-rule="evenodd" clip-rule="evenodd" d="M8.2416 52.5942V54.3352H10.9935V55.3812H8.2416V57.9122H7.21143V51.636H11.3321V52.5942H8.2416Z" fill="#231F20"/>
<path id="Vector_17" fill-rule="evenodd" clip-rule="evenodd" d="M17.6858 53.1136C17.34 52.6747 16.7421 52.4187 16.1442 52.4187C15.5462 52.4187 15.0275 52.682 14.5953 53.1136C14.1631 53.5525 13.9974 54.0719 13.9974 54.7668C13.9974 55.3739 14.1703 55.9006 14.5953 56.3395C15.0275 56.7784 15.539 57.0344 16.1442 57.0344C16.7493 57.0344 17.3472 56.7711 17.6858 56.3395C18.1181 55.9006 18.3702 55.3812 18.3702 54.7668C18.3702 54.0719 18.1109 53.5452 17.6858 53.1136ZM18.4567 57.0344C17.8587 57.7293 17.0807 57.9927 16.137 57.9927C15.1932 57.9927 14.4224 57.7293 13.8173 57.0344C13.2193 56.4273 12.8735 55.6373 12.8735 54.7668C12.8735 53.8085 13.2193 53.0258 13.8173 52.4114C14.4224 51.8042 15.1932 51.4531 16.137 51.4531C17.0807 51.4531 17.8515 51.8042 18.4567 52.4114C19.141 53.0185 19.4004 53.8085 19.4004 54.7668C19.4004 55.6373 19.141 56.4273 18.4567 57.0344Z" fill="#231F20"/>
<path id="Vector_18" fill-rule="evenodd" clip-rule="evenodd" d="M25.0774 54.5985C25.2503 54.423 25.3367 54.0792 25.3367 53.7281C25.3367 53.2892 25.2503 53.0331 25.0774 52.8576C24.818 52.682 24.393 52.5942 23.8743 52.5942H22.4983V54.8619H23.8743C24.3858 54.8619 24.818 54.7741 25.0774 54.5985ZM26.4533 53.7281C26.4533 54.6863 26.0211 55.3885 25.0774 55.6446L26.7055 57.9122H25.416L23.8671 55.8201H22.4911V57.9122H21.4609V51.636H23.7806C24.7244 51.636 25.4087 51.8115 25.841 52.1554C26.2732 52.4187 26.4389 52.938 26.4389 53.7281H26.4533Z" fill="#231F20"/>
<path id="Vector_19" fill-rule="evenodd" clip-rule="evenodd" d="M30.0554 56.515C30.3148 56.8661 30.7398 57.0417 31.1721 57.0417C31.6835 57.0417 32.1158 56.8661 32.3751 56.515C32.6345 56.1639 32.8074 55.7323 32.8074 55.1179V51.6287H33.8376V55.2057C33.8376 56.0761 33.5782 56.7784 33.1532 57.2977C32.6417 57.7366 31.9501 57.9926 31.1793 57.9926C30.4949 57.9926 29.8033 57.7293 29.2918 57.2977C28.8596 56.7711 28.6074 56.0761 28.6074 55.2057V51.6287H29.6376V55.1179C29.6376 55.725 29.8105 56.1639 30.0698 56.515" fill="#231F20"/>
<path id="Vector_20" fill-rule="evenodd" clip-rule="evenodd" d="M37.2665 57.9122H36.2363V51.636H37.8716L39.7591 55.6446L41.5601 51.636H43.1954V57.9122H42.1652V53.0331L40.0184 57.3928H39.4133L37.2665 53.0331V57.9122Z" fill="#231F20"/>
</g>
<defs>
<clipPath id="clip0_845_1585">
<rect width="90" height="58" fill="white"/>
</clipPath>
</defs>
</svg>
