<svg width="86" height="54" viewBox="0 0 86 54" fill="none" xmlns="http://www.w3.org/2000/svg">
<g id="_Layer_" clip-path="url(#clip0_845_775)">
<path id="Vector" fill-rule="evenodd" clip-rule="evenodd" d="M46.0586 36.7173C46.0586 36.7173 50.4471 25.5045 52.0689 21.715C53.6908 18.0067 54.0179 16.3894 59.9464 15.0225C65.7932 13.5676 68.7984 12.7623 70.0182 12.5187C70.0182 12.5187 72.2942 12.1127 72.376 13.4052C72.4577 14.2916 71.5651 15.7465 70.9109 16.633C70.9109 16.633 70.1817 18.0067 66.2839 18.4871C66.2839 18.4871 59.3808 19.6984 57.5137 20.9097C55.5647 22.2022 54.9174 22.439 53.3705 24.618C51.8236 26.797 46.0586 36.7173 46.0586 36.7173Z" fill="#FBF7F8"/>
<path id="Vector_2" fill-rule="evenodd" clip-rule="evenodd" d="M46.0586 36.7175C46.0586 36.7175 56.7777 16.3896 59.0537 11.8761C61.248 7.28132 61.9771 4.93996 69.3708 3.24822C76.6759 1.46852 81.0644 0.419639 82.5295 0.0948253C82.5295 0.0948253 85.0508 -0.466831 85.1258 1.1437C85.2076 2.27378 83.9878 4.20913 83.0951 5.25801C83.0951 5.25801 82.2024 6.94974 77.4118 7.59937C77.4118 7.59937 68.7984 8.89186 66.3656 10.2588C63.8443 11.6325 63.0334 12.6001 61.0844 15.2596C59.2173 18.0002 46.0586 36.7175 46.0586 36.7175Z" fill="#FBF7F8"/>
<path id="Vector_3" fill-rule="evenodd" clip-rule="evenodd" d="M27.2101 6.22559L22.7466 17.1948L18.2763 6.30679V6.22559H13.5676V6.30679L9.17905 17.1136L4.70878 6.22559H0L6.82126 22.8452H11.5368L15.9185 12.0316L20.3888 22.8452H25.0976L31.9257 6.22559H27.2101Z" fill="#FBF7F8"/>
<path id="Vector_4" fill-rule="evenodd" clip-rule="evenodd" d="M49.6299 6.22559L46.7883 13.0805H38.9926L41.7524 6.22559H37.0368L30.2974 22.8452H34.9312L37.6093 16.3895H45.4868L42.8087 22.8452H47.5175L54.2569 6.22559H49.6299Z" fill="#FBF7F8"/>
<path id="Vector_5" fill-rule="evenodd" clip-rule="evenodd" d="M8.36802 34.1325L9.74454 29.8625H10.644L11.9388 34.1325L13.4039 29.8625H14.4601L12.4294 35.7498H11.455L10.2352 31.7167H10.1534L8.85185 35.7498H7.87738L5.84668 29.8625H6.90292L8.36802 34.1325Z" fill="#FBF7F8"/>
<path id="Vector_6" fill-rule="evenodd" clip-rule="evenodd" d="M20.2256 31.3105C19.8168 30.8301 19.3329 30.6677 18.6856 30.6677C18.1131 30.6677 17.6293 30.8301 17.2204 31.3105C16.8116 31.7165 16.6549 32.197 16.6549 32.7654C16.6549 33.3338 16.8184 33.8955 17.2204 34.2947C17.6293 34.7008 18.1131 34.8564 18.6856 34.8564C19.3329 34.8564 19.8236 34.694 20.2256 34.2947C20.6345 33.8887 20.798 33.3271 20.798 32.7654C20.798 32.2037 20.6345 31.7165 20.2256 31.3105ZM20.9548 34.9376C20.3074 35.4993 19.5714 35.8241 18.6787 35.8241C17.8678 35.8241 17.1387 35.4993 16.4845 34.9376C15.9189 34.3759 15.5918 33.6451 15.5918 32.7586C15.5918 31.9534 15.9189 31.2293 16.4845 30.5797C17.1319 30.018 17.8678 29.7744 18.6787 29.7744C19.5714 29.7744 20.3006 30.018 20.9548 30.5797C21.5204 31.2225 21.8475 31.9534 21.8475 32.7586C21.8475 33.6451 21.5204 34.3692 20.9548 34.9376Z" fill="#FBF7F8"/>
<path id="Vector_7" fill-rule="evenodd" clip-rule="evenodd" d="M27.1284 32.6032C27.2919 32.4408 27.4555 32.1971 27.4555 31.7979C27.4555 31.3986 27.2919 31.155 27.1284 30.9926C26.883 30.8302 26.5628 30.8302 25.9904 30.8302H24.6888V32.8468H25.9904C26.556 32.8468 26.883 32.7656 27.1284 32.6032ZM28.4299 31.7979C28.4299 32.7656 28.0211 33.334 27.1284 33.652L28.6684 35.7498H27.4486L26.0653 33.8144H24.682V35.7498H23.7075V29.8625H25.9018C26.7945 29.8625 27.4418 30.025 27.8507 30.343C28.2596 30.6678 28.4163 31.1483 28.4163 31.7979H28.4299Z" fill="#FBF7F8"/>
<path id="Vector_8" fill-rule="evenodd" clip-rule="evenodd" d="M30.5425 35.7498V29.8625H31.5169V34.7821H34.195V35.7498H30.5425Z" fill="#FBF7F8"/>
<path id="Vector_9" fill-rule="evenodd" clip-rule="evenodd" d="M40.2872 32.8468C40.2872 31.4731 39.4763 30.8302 37.9294 30.8302H36.9549V34.7821H38.0929C38.7403 34.7821 39.3127 34.6197 39.7148 34.3017C40.0419 33.9769 40.2872 33.4964 40.2872 32.8468ZM40.4507 30.6678C41.0163 31.155 41.2617 31.8791 41.2617 32.7656C41.2617 33.7332 41.0163 34.3761 40.4507 34.9445C39.8851 35.5062 39.0674 35.7498 37.9294 35.7498H35.9805V29.8625H38.0112C39.0674 29.8625 39.8783 30.1874 40.4507 30.6678Z" fill="#FBF7F8"/>
<path id="Vector_10" fill-rule="evenodd" clip-rule="evenodd" d="M6.82129 44.6212V38.8152H7.79575V41.3122H10.726V38.8152H11.6936V44.6212H10.726V42.2799H7.79575V44.6212H6.82129Z" fill="#FBF7F8"/>
<path id="Vector_11" fill-rule="evenodd" clip-rule="evenodd" d="M18.1946 40.1821C17.7858 39.7761 17.3019 39.5392 16.7363 39.5392C16.1707 39.5392 15.6801 39.7828 15.2712 40.1821C14.8624 40.5881 14.7056 41.0686 14.7056 41.637C14.7056 42.2798 14.8692 42.7671 15.2712 43.1663C15.6801 43.5723 16.1639 43.8092 16.7363 43.8092C17.3087 43.8092 17.7926 43.5656 18.1946 43.1663C18.6035 42.7603 18.842 42.2798 18.842 41.637C18.842 41.0753 18.5967 40.5881 18.1946 40.1821ZM18.9238 43.8092C18.3582 44.3708 17.6222 44.6957 16.7295 44.6957C15.8368 44.6957 15.1077 44.3708 14.5353 43.8092C13.9697 43.2475 13.6426 42.5167 13.6426 41.6302C13.6426 40.825 13.9697 40.1009 14.5353 39.5325C15.1077 38.9708 15.8368 38.646 16.7295 38.646C17.6222 38.646 18.3514 38.9708 18.9238 39.5325C19.5711 40.1009 19.8165 40.825 19.8165 41.6302C19.8165 42.5167 19.5711 43.2408 18.9238 43.8092Z" fill="#FBF7F8"/>
<path id="Vector_12" fill-rule="evenodd" clip-rule="evenodd" d="M24.4507 43.7347C24.7778 43.7347 25.0981 43.6535 25.3434 43.5723C25.5887 43.4911 25.8272 43.2475 26.0725 43.0039L26.7199 43.6468C26.1543 44.3708 25.3366 44.6957 24.4439 44.6957C23.5512 44.6957 22.822 44.3708 22.2496 43.8092C21.6772 43.2475 21.3569 42.5167 21.3569 41.7114C21.3569 40.825 21.684 40.1009 22.2496 39.5325C22.897 38.9708 23.633 38.646 24.5256 38.646C25.4183 38.646 26.2293 38.9708 26.8017 39.6137L26.2361 40.3377C25.909 40.0941 25.6705 39.8505 25.4252 39.7761C25.1798 39.6949 24.8596 39.6137 24.5325 39.6137C23.9669 39.6137 23.4762 39.7761 23.0742 40.1753C22.6653 40.5813 22.4268 41.0618 22.4268 41.6302C22.4268 42.2731 22.6721 42.7603 22.9924 43.1663C23.4013 43.5723 23.8851 43.728 24.4575 43.728" fill="#FBF7F8"/>
<path id="Vector_13" fill-rule="evenodd" clip-rule="evenodd" d="M28.6753 38.8152H29.6498V41.637L32.3278 38.8152H33.5476L31.1898 41.3122L33.6294 44.6212H32.4096L30.4607 42.043L29.6498 43.0107V44.6212H28.6753V38.8152Z" fill="#FBF7F8"/>
<path id="Vector_14" fill-rule="evenodd" clip-rule="evenodd" d="M39.3942 38.8152V39.7017H36.2254V41.231H39.0671V42.1175H36.2254V43.7348H39.4759V44.6212H35.251V38.8152H39.3942Z" fill="#FBF7F8"/>
<path id="Vector_15" fill-rule="evenodd" clip-rule="evenodd" d="M43.7009 44.6212H42.7265V42.3611L40.5322 38.8152H41.5885L43.2103 41.4746L44.839 38.8152H45.8952L43.7009 42.3611V44.6212Z" fill="#FBF7F8"/>
<path id="Vector_16" fill-rule="evenodd" clip-rule="evenodd" d="M7.79575 48.6543V50.2648H10.3989V51.2325H7.79575V53.5739H6.82129V47.7678H10.7191V48.6543H7.79575Z" fill="#FBF7F8"/>
<path id="Vector_17" fill-rule="evenodd" clip-rule="evenodd" d="M16.7293 49.1347C16.4022 48.7287 15.8366 48.4919 15.271 48.4919C14.7054 48.4919 14.2148 48.7355 13.8059 49.1347C13.397 49.5408 13.2403 50.0212 13.2403 50.6641C13.2403 51.2257 13.4038 51.7129 13.8059 52.119C14.2148 52.525 14.6986 52.7618 15.271 52.7618C15.8434 52.7618 16.409 52.5182 16.7293 52.119C17.1382 51.7129 17.3767 51.2325 17.3767 50.6641C17.3767 50.0212 17.1313 49.534 16.7293 49.1347ZM17.4584 52.7618C16.8928 53.4047 16.1569 53.6483 15.2642 53.6483C14.3715 53.6483 13.6424 53.4047 13.0699 52.7618C12.5043 52.2002 12.1772 51.4693 12.1772 50.6641C12.1772 49.7776 12.5043 49.0535 13.0699 48.4851C13.6424 47.9234 14.3715 47.5986 15.2642 47.5986C16.1569 47.5986 16.886 47.9234 17.4584 48.4851C18.1058 49.0468 18.3511 49.7776 18.3511 50.6641C18.3511 51.4693 18.1058 52.2002 17.4584 52.7618Z" fill="#FBF7F8"/>
<path id="Vector_18" fill-rule="evenodd" clip-rule="evenodd" d="M23.7211 50.5084C23.8847 50.346 23.9665 50.028 23.9665 49.7032C23.9665 49.2972 23.8847 49.0603 23.7211 48.8979C23.4758 48.7355 23.0738 48.6543 22.5831 48.6543H21.2816V50.752H22.5831C23.067 50.752 23.4758 50.6708 23.7211 50.5084ZM25.0227 49.7032C25.0227 50.5896 24.6138 51.2393 23.7211 51.4761L25.2612 53.5739H24.0414L22.5763 51.6385H21.2748V53.5739H20.3003V47.7678H22.4945C23.3872 47.7678 24.0346 47.9302 24.4435 48.2483C24.8523 48.4919 25.0091 48.9723 25.0091 49.7032H25.0227Z" fill="#FBF7F8"/>
<path id="Vector_19" fill-rule="evenodd" clip-rule="evenodd" d="M28.4298 52.2813C28.6751 52.6061 29.0771 52.7685 29.486 52.7685C29.9698 52.7685 30.3787 52.6061 30.624 52.2813C30.8693 51.9565 31.0329 51.5572 31.0329 50.9888V47.761H32.0073V51.07C32.0073 51.8753 31.762 52.5249 31.36 53.0054C30.8761 53.4114 30.222 53.6482 29.4928 53.6482C28.8454 53.6482 28.1913 53.4046 27.7074 53.0054C27.2986 52.5182 27.0601 51.8753 27.0601 51.07V47.761H28.0345V50.9888C28.0345 51.5505 28.1981 51.9565 28.4434 52.2813" fill="#FBF7F8"/>
<path id="Vector_20" fill-rule="evenodd" clip-rule="evenodd" d="M35.2513 53.5739H34.2769V47.7678H35.8237L37.6091 51.4761L39.3127 47.7678H40.8596V53.5739H39.8851V49.0603L37.8544 53.0934H37.282L35.2513 49.0603V53.5739Z" fill="#FBF7F8"/>
</g>
<defs>
<clipPath id="clip0_845_775">
<rect width="85.1328" height="53.6551" fill="white"/>
</clipPath>
</defs>
</svg>
