<svg width="40" height="40" viewBox="0 0 40 40" fill="none" xmlns="http://www.w3.org/2000/svg">
<g id="Layer_16" clip-path="url(#clip0_725_97736)">
<path id="Vector" d="M36.4597 3.43937C33.7494 0.731445 29.3897 0.731445 20.6705 0.731445H19.129C10.4098 0.731445 6.05013 0.731445 3.33976 3.43937C0.631836 6.14974 0.631836 10.5094 0.631836 19.2286V20.7701C0.631836 29.4893 0.631836 33.849 3.33976 36.5594C6.04768 39.2673 10.4073 39.2673 19.129 39.2673H20.6705C29.3897 39.2673 33.7494 39.2673 36.4597 36.5594C39.1677 33.8514 39.1677 29.4918 39.1677 20.7701V19.2286C39.1677 10.5094 39.1677 6.14974 36.4597 3.43937Z" fill="#FF7800"/>
<g id="Group">
<path id="Vector_2" d="M19.94 19.6899C23.3071 19.6703 26.0665 16.9232 26.0714 13.5266C26.0763 10.1276 23.2924 7.34863 19.9008 7.35108C16.4748 7.35353 13.713 10.1619 13.7375 13.5193C13.7105 16.8888 16.4969 19.7095 19.94 19.6899ZM19.9032 10.777C21.3932 10.7501 22.6577 11.995 22.6528 13.5242C22.6479 15.046 21.4202 16.2762 19.8959 16.2713C18.3569 16.2688 17.1512 15.0092 17.1512 13.5119C17.1512 12.0023 18.4157 10.7452 19.9032 10.777Z" fill="white"/>
<path id="Vector_3" d="M28.1496 22.0837C27.9364 21.797 27.7281 21.5103 27.5173 21.2235C27.1424 20.7089 26.7674 20.1943 26.39 19.6821C26.2626 19.5081 26.0739 19.4836 25.9024 19.6159C25.8509 19.6551 25.8044 19.6993 25.7553 19.7409C24.8903 20.4491 23.9443 21.025 22.8979 21.4245C22.1627 21.7063 21.4055 21.8925 20.6213 21.9563C19.8175 22.0224 19.0186 21.9808 18.2271 21.8092C17.5286 21.6573 16.8572 21.4318 16.2151 21.1231C15.4138 20.7383 14.6737 20.2604 13.9949 19.687C13.713 19.4493 13.5709 19.4689 13.3528 19.7679C13.1519 20.0423 12.9534 20.3144 12.7524 20.5888C12.3824 21.0937 12.0099 21.5985 11.6423 22.1058C11.5271 22.2626 11.5492 22.4415 11.6962 22.5591C12.1863 22.9512 12.6985 23.3115 13.2425 23.6276C14.2448 24.2084 15.301 24.6519 16.4234 24.9436C16.5337 24.973 16.6415 25.0024 16.7592 25.0342C16.7371 25.0759 16.7248 25.1077 16.7077 25.1372C16.5533 25.4067 16.3989 25.6787 16.2445 25.9483C15.1638 27.8475 14.088 29.7468 13.0024 31.6411C12.8578 31.891 13.0293 32.1582 13.2989 32.1582C14.5119 32.1533 15.725 32.1582 16.9405 32.1582C17.1047 32.1582 17.2199 32.0871 17.2885 31.9302C17.5924 31.2465 17.8987 30.5653 18.205 29.8815C18.6878 28.8033 19.1706 27.725 19.6558 26.6467C19.7342 26.4703 19.8175 26.2938 19.9033 26.1002C19.9204 26.1321 19.9302 26.1468 19.9351 26.1615C20.2439 26.8501 20.5551 27.5388 20.8639 28.2274C21.4104 29.4478 21.9593 30.6657 22.5034 31.8886C22.5892 32.0822 22.719 32.1631 22.9273 32.1631C24.1061 32.1582 25.2873 32.1631 26.466 32.1631C26.4905 32.1631 26.5126 32.1631 26.5371 32.1631C26.8116 32.1434 26.9439 31.9008 26.8091 31.6607C26.2724 30.7147 25.7357 29.7713 25.1991 28.8253C24.4982 27.5951 23.7973 26.3649 23.0964 25.1372C23.0548 25.0661 23.0597 25.0416 23.1454 25.0146C23.7066 24.8406 24.2776 24.6862 24.8266 24.4755C26.0127 24.0197 27.1007 23.3825 28.0908 22.5812C28.2623 22.4439 28.2819 22.2675 28.152 22.0911L28.1496 22.0837Z" fill="white"/>
</g>
</g>
<defs>
<clipPath id="clip0_725_97736">
<rect width="38.5358" height="38.5358" fill="white" transform="translate(0.631836 0.731445)"/>
</clipPath>
</defs>
</svg>
