<svg width="40" height="39" viewBox="0 0 40 39" fill="none" xmlns="http://www.w3.org/2000/svg">
<g id="Layer_16" clip-path="url(#clip0_725_97700)">
<path id="Vector" d="M36.4597 2.93986C33.7494 0.231934 29.3897 0.231934 20.6705 0.231934H19.129C10.4098 0.231934 6.05013 0.231934 3.33976 2.93986C0.631836 5.65023 0.631836 10.0099 0.631836 18.7291V20.2706C0.631836 28.9898 0.631836 33.3495 3.33976 36.0598C6.04768 38.7678 10.4073 38.7678 19.129 38.7678H20.6705C29.3897 38.7678 33.7494 38.7678 36.4597 36.0598C39.1677 33.3519 39.1677 28.9923 39.1677 20.2706V18.7291C39.1677 10.0099 39.1677 5.65023 36.4597 2.93986Z" fill="#242329"/>
<g id="Group">
<path id="Vector_2" d="M19.94 19.1904C23.3071 19.1708 26.0665 16.4236 26.0714 13.0271C26.0763 9.6281 23.2924 6.84911 19.9008 6.85156C16.4748 6.85401 13.713 9.66241 13.7375 13.0197C13.7105 16.3893 16.4969 19.21 19.94 19.1904ZM19.9032 10.2775C21.3932 10.2506 22.6577 11.4955 22.6528 13.0247C22.6479 14.5465 21.4202 15.7767 19.8959 15.7718C18.3569 15.7693 17.1512 14.5097 17.1512 13.0124C17.1512 11.5028 18.4157 10.2457 19.9032 10.2775Z" fill="#FBF7F8"/>
<path id="Vector_3" d="M28.1496 21.5842C27.9364 21.2975 27.7281 21.0107 27.5173 20.724C27.1424 20.2094 26.7674 19.6948 26.39 19.1826C26.2626 19.0086 26.0739 18.9841 25.9024 19.1164C25.8509 19.1556 25.8044 19.1997 25.7553 19.2414C24.8903 19.9496 23.9443 20.5255 22.8979 20.925C22.1627 21.2068 21.4055 21.393 20.6213 21.4568C19.8175 21.5229 19.0186 21.4813 18.2271 21.3097C17.5286 21.1578 16.8572 20.9323 16.2151 20.6235C15.4138 20.2388 14.6737 19.7609 13.9949 19.1875C13.713 18.9498 13.5709 18.9694 13.3528 19.2684C13.1519 19.5428 12.9534 19.8148 12.7524 20.0893C12.3824 20.5941 12.0099 21.099 11.6423 21.6062C11.5271 21.7631 11.5492 21.942 11.6962 22.0596C12.1863 22.4517 12.6985 22.8119 13.2425 23.1281C14.2448 23.7089 15.301 24.1524 16.4234 24.444C16.5337 24.4735 16.6415 24.5029 16.7592 24.5347C16.7371 24.5764 16.7248 24.6082 16.7077 24.6376C16.5533 24.9072 16.3989 25.1792 16.2445 25.4488C15.1638 27.348 14.088 29.2472 13.0024 31.1416C12.8578 31.3915 13.0293 31.6586 13.2989 31.6586C14.5119 31.6537 15.725 31.6586 16.9405 31.6586C17.1047 31.6586 17.2199 31.5876 17.2885 31.4307C17.5924 30.747 17.8987 30.0657 18.205 29.382C18.6878 28.3038 19.1706 27.2255 19.6558 26.1472C19.7342 25.9708 19.8175 25.7943 19.9033 25.6007C19.9204 25.6326 19.9302 25.6473 19.9351 25.662C20.2439 26.3506 20.5551 27.0392 20.8639 27.7279C21.4104 28.9483 21.9593 30.1662 22.5034 31.3891C22.5892 31.5827 22.719 31.6635 22.9273 31.6635C24.1061 31.6586 25.2873 31.6635 26.466 31.6635C26.4905 31.6635 26.5126 31.6635 26.5371 31.6635C26.8116 31.6439 26.9439 31.4013 26.8091 31.1612C26.2724 30.2152 25.7357 29.2717 25.1991 28.3258C24.4982 27.0956 23.7973 25.8654 23.0964 24.6376C23.0548 24.5666 23.0597 24.5421 23.1454 24.5151C23.7066 24.3411 24.2776 24.1867 24.8266 23.976C26.0127 23.5202 27.1007 22.883 28.0908 22.0817C28.2623 21.9444 28.2819 21.768 28.152 21.5915L28.1496 21.5842Z" fill="#FBF7F8"/>
</g>
</g>
<defs>
<clipPath id="clip0_725_97700">
<rect width="38.5358" height="38.5358" fill="white" transform="translate(0.631836 0.231934)"/>
</clipPath>
</defs>
</svg>
