<svg width="21" height="15" viewBox="0 0 21 15" fill="none" xmlns="http://www.w3.org/2000/svg">
<g id="Layer_14" clip-path="url(#clip0_725_96932)">
<path id="Vector" d="M20.3156 6.63177C20.1405 6.36323 15.8439 0 10.3213 0C4.79869 0 0.502053 6.36323 0.326918 6.63177L0 7.12215L0.326918 7.61253C0.502053 7.88107 4.79869 14.2443 10.3213 14.2443C15.8439 14.2443 20.1405 7.88107 20.3156 7.61253L20.6426 7.12215L20.3156 6.63177ZM10.3213 12.4813C6.52669 12.4813 3.19913 8.51155 2.13664 7.11047C3.19913 5.7094 6.52669 1.73967 10.3213 1.73967C14.1159 1.73967 17.4434 5.7094 18.5059 7.11047C17.4434 8.51155 14.1042 12.4813 10.3213 12.4813Z" fill="#1273EB"/>
<path id="Vector_2" d="M11.9209 4.09835C11.4422 3.84148 10.9051 3.6897 10.3213 3.6897C8.42986 3.6897 6.88867 5.23088 6.88867 7.12234C6.88867 9.0138 8.42986 10.555 10.3213 10.555C12.2128 10.555 13.754 9.0138 13.754 7.12234V6.95888L10.0061 7.63607L11.9092 4.09835H11.9209Z" fill="#1273EB"/>
</g>
<defs>
<clipPath id="clip0_725_96932">
<rect width="20.6426" height="14.2443" fill="white"/>
</clipPath>
</defs>
</svg>
