<svg width="21" height="15" viewBox="0 0 21 15" fill="none" xmlns="http://www.w3.org/2000/svg">
<g id="Layer_14" clip-path="url(#clip0_725_97168)">
<path id="Vector" d="M20.3156 6.63177C20.1405 6.36323 15.8439 0 10.3213 0C4.79869 0 0.502053 6.36323 0.326918 6.63177L0 7.12215L0.326918 7.61253C0.502053 7.88107 4.79869 14.2443 10.3213 14.2443C15.8439 14.2443 20.1405 7.88107 20.3156 7.61253L20.6426 7.12215L20.3156 6.63177ZM10.3213 12.4813C6.52669 12.4813 3.19913 8.51155 2.13664 7.11047C3.19913 5.7094 6.52669 1.73967 10.3213 1.73967C14.1159 1.73967 17.4434 5.7094 18.5059 7.11047C17.4434 8.51155 14.1042 12.4813 10.3213 12.4813Z" fill="#656370"/>
<path id="Vector_2" d="M11.9209 4.09859C11.4422 3.84172 10.9051 3.68994 10.3213 3.68994C8.42986 3.68994 6.88867 5.23113 6.88867 7.12258C6.88867 9.01404 8.42986 10.5552 10.3213 10.5552C12.2128 10.5552 13.754 9.01404 13.754 7.12258V6.95912L10.0061 7.63631L11.9092 4.09859H11.9209Z" fill="#656370"/>
</g>
<defs>
<clipPath id="clip0_725_97168">
<rect width="20.6426" height="14.2443" fill="white"/>
</clipPath>
</defs>
</svg>
