<svg width="128" height="60" viewBox="0 0 128 60" fill="none" xmlns="http://www.w3.org/2000/svg">
<g id="Group 23509">
<rect id="Rectangle 321" x="127.174" y="59.5" width="126" height="59" rx="11.5" transform="rotate(-180 127.174 59.5)" stroke="white"/>
<path id="Arrow 1" d="M52.6132 28.9393C52.0274 29.5251 52.0274 30.4749 52.6132 31.0607L62.1591 40.6066C62.7449 41.1924 63.6946 41.1924 64.2804 40.6066C64.8662 40.0208 64.8662 39.0711 64.2804 38.4853L55.7951 30L64.2804 21.5147C64.8662 20.9289 64.8662 19.9792 64.2804 19.3934C63.6946 18.8076 62.7449 18.8076 62.1591 19.3934L52.6132 28.9393ZM75.6738 28.5L53.6738 28.5L53.6738 31.5L75.6738 31.5L75.6738 28.5Z" fill="white"/>
</g>
</svg>
