<svg width="128" height="60" viewBox="0 0 128 60" fill="none" xmlns="http://www.w3.org/2000/svg">
<g id="Group 23509">
<rect id="Rectangle 321" x="127.174" y="59.5" width="126" height="59" rx="11.5" transform="rotate(-180 127.174 59.5)" stroke="#628BFF"/>
<path id="Arrow 1" d="M52.6129 28.9393C52.0271 29.5251 52.0271 30.4749 52.6129 31.0607L62.1589 40.6066C62.7446 41.1924 63.6944 41.1924 64.2802 40.6066C64.866 40.0208 64.866 39.0711 64.2802 38.4853L55.7949 30L64.2802 21.5147C64.866 20.9289 64.866 19.9792 64.2802 19.3934C63.6944 18.8076 62.7447 18.8076 62.1589 19.3934L52.6129 28.9393ZM75.6736 28.5L53.6736 28.5L53.6736 31.5L75.6736 31.5L75.6736 28.5Z" fill="#628BFF"/>
</g>
</svg>
