<svg width="127" height="60" viewBox="0 0 127 60" fill="none" xmlns="http://www.w3.org/2000/svg">
<rect x="126.5" y="59.5" width="126" height="59" rx="11.5" transform="rotate(-180 126.5 59.5)" stroke="#1273EB"/>
<path d="M51.9393 28.9393C51.3536 29.5251 51.3536 30.4749 51.9393 31.0607L61.4853 40.6066C62.0711 41.1924 63.0208 41.1924 63.6066 40.6066C64.1924 40.0208 64.1924 39.0711 63.6066 38.4853L55.1213 30L63.6066 21.5147C64.1924 20.9289 64.1924 19.9792 63.6066 19.3934C63.0208 18.8076 62.0711 18.8076 61.4853 19.3934L51.9393 28.9393ZM75 28.5L53 28.5L53 31.5L75 31.5L75 28.5Z" fill="#1273EB"/>
</svg>
