<svg width="40" height="40" viewBox="0 0 40 40" fill="none" xmlns="http://www.w3.org/2000/svg">
<g id="Layer_16" clip-path="url(#clip0_725_97728)">
<path id="Vector" d="M36.5015 3.43937C33.7911 0.731445 29.4315 0.731445 20.7122 0.731445H19.1708C10.4515 0.731445 6.09188 0.731445 3.38151 3.43937C0.673584 6.14974 0.673584 10.5094 0.673584 19.2286V20.7701C0.673584 29.4893 0.673584 33.849 3.38151 36.5594C6.08943 39.2673 10.4491 39.2673 19.1708 39.2673H20.7122C29.4315 39.2673 33.7911 39.2673 36.5015 36.5594C39.2094 33.8514 39.2094 29.4918 39.2094 20.7701V19.2286C39.2094 10.5094 39.2094 6.14974 36.5015 3.43937Z" fill="#35A9DE"/>
<path id="Vector_2" d="M29.8849 12.2373C29.8285 13.019 29.3825 15.7588 28.934 18.7216C28.2626 22.9146 27.5372 27.4997 27.5372 27.4997C27.5372 27.4997 27.4245 28.7863 26.4761 29.0093C25.5252 29.2323 23.9593 28.2275 23.6799 28.0021C23.4569 27.8354 19.4869 25.3187 18.0337 24.0885C17.6416 23.7527 17.1956 23.0813 18.0901 22.2995C20.102 20.4542 22.5061 18.1629 23.9593 16.7097C24.6308 16.0382 25.3022 14.4723 22.5061 16.3739C18.5361 19.1137 14.6225 21.6844 14.6225 21.6844C14.6225 21.6844 13.728 22.2431 12.0518 21.7408C10.3756 21.2384 8.41754 20.5669 8.41754 20.5669C8.41754 20.5669 7.07461 19.7288 9.36838 18.8343C9.36838 18.8343 19.0409 14.8644 22.3958 13.4675C23.6824 12.9088 28.042 11.1198 28.042 11.1198C28.042 11.1198 30.054 10.3381 29.8873 12.2373H29.8849Z" fill="white"/>
</g>
<defs>
<clipPath id="clip0_725_97728">
<rect width="38.5358" height="38.5358" fill="white" transform="translate(0.673584 0.731445)"/>
</clipPath>
</defs>
</svg>
