<svg width="40" height="39" viewBox="0 0 40 39" fill="none" xmlns="http://www.w3.org/2000/svg">
<g clip-path="url(#clip0_725_97692)">
<path d="M36.5015 2.93986C33.7911 0.231934 29.4315 0.231934 20.7122 0.231934H19.1708C10.4515 0.231934 6.09188 0.231934 3.38151 2.93986C0.673584 5.65023 0.673584 10.0099 0.673584 18.7291V20.2706C0.673584 28.9898 0.673584 33.3495 3.38151 36.0598C6.08943 38.7678 10.4491 38.7678 19.1708 38.7678H20.7122C29.4315 38.7678 33.7911 38.7678 36.5015 36.0598C39.2094 33.3519 39.2094 28.9923 39.2094 20.2706V18.7291C39.2094 10.0099 39.2094 5.65023 36.5015 2.93986Z" fill="#242329"/>
<path d="M29.8849 11.7378C29.8285 12.5195 29.3825 15.2593 28.934 18.2221C28.2626 22.4151 27.5372 27.0002 27.5372 27.0002C27.5372 27.0002 27.4245 28.2868 26.4761 28.5098C25.5252 28.7328 23.9593 27.728 23.6799 27.5026C23.4569 27.3359 19.4869 24.8191 18.0337 23.5889C17.6416 23.2532 17.1956 22.5817 18.0901 21.8C20.102 19.9547 22.5061 17.6634 23.9593 16.2102C24.6308 15.5387 25.3022 13.9727 22.5061 15.8744C18.5361 18.6142 14.6225 21.1849 14.6225 21.1849C14.6225 21.1849 13.728 21.7436 12.0518 21.2413C10.3756 20.7389 8.41754 20.0674 8.41754 20.0674C8.41754 20.0674 7.07461 19.2293 9.36838 18.3348C9.36838 18.3348 19.0409 14.3648 22.3958 12.968C23.6824 12.4093 28.042 10.6203 28.042 10.6203C28.042 10.6203 30.054 9.83857 29.8873 11.7378H29.8849Z" fill="#FBF7F8"/>
</g>
<defs>
<clipPath id="clip0_725_97692">
<rect width="38.5358" height="38.5358" fill="white" transform="translate(0.673584 0.231934)"/>
</clipPath>
</defs>
</svg>
