<svg width="39" height="39" viewBox="0 0 39 39" fill="none" xmlns="http://www.w3.org/2000/svg">
<g id="Layer_16" clip-path="url(#clip0_725_97706)">
<path id="Vector" d="M35.9388 2.93986C33.2284 0.231934 28.8687 0.231934 20.1495 0.231934H18.608C9.88877 0.231934 5.52914 0.231934 2.81876 2.93986C0.11084 5.65023 0.11084 10.0099 0.11084 18.7291V20.2706C0.11084 28.9898 0.11084 33.3495 2.81876 36.0598C5.52669 38.7678 9.88632 38.7678 18.608 38.7678H20.1495C28.8687 38.7678 33.2284 38.7678 35.9388 36.0598C38.6467 33.3519 38.6467 28.9923 38.6467 20.2706V18.7291C38.6467 10.0099 38.6467 5.65023 35.9388 2.93986Z" fill="#242329"/>
<g id="Group">
<path id="Vector_2" d="M20.2401 14.4971C20.0024 14.4971 19.8848 14.6147 19.8848 14.8524C19.8848 15.0901 20.0024 15.2078 20.2401 15.2078C21.3086 15.2078 21.9041 15.8008 21.9041 16.8717C21.9041 17.1094 22.1418 17.2271 22.2594 17.2271C22.4971 17.2271 22.6147 17.1094 22.4971 16.8717C22.4971 15.3278 21.6664 14.6147 20.2401 14.4946V14.4971Z" fill="#FBF7F8"/>
<path id="Vector_3" d="M23.5654 17.4671C23.5654 17.7048 23.6831 17.8224 23.9208 17.8224C24.1585 17.8224 24.2761 17.7048 24.2761 17.4671C24.2761 16.1609 23.9208 15.09 23.0876 14.2593C22.2568 13.4285 21.1859 12.9531 19.7621 12.833C19.5244 12.833 19.4067 12.9506 19.4067 13.1883C19.4067 13.4261 19.5244 13.5437 19.7621 13.5437C20.9506 13.5437 21.9015 14.0191 22.6121 14.7322C23.3253 15.4454 23.563 16.3962 23.563 17.4647L23.5654 17.4671Z" fill="#FBF7F8"/>
<path id="Vector_4" d="M19.1693 11.0518C18.9316 11.0518 18.814 11.1694 18.814 11.4071C18.814 11.6448 18.9316 11.7625 19.1693 11.7625C20.9509 11.8801 22.3772 12.3555 23.5657 13.544C24.7542 14.6125 25.3473 16.1588 25.3473 18.1781C25.3473 18.4159 25.4649 18.5335 25.7026 18.5335C25.8203 18.5335 25.9403 18.2958 26.058 18.0581C25.9403 15.9187 25.3448 14.2572 24.0387 12.9485C22.7325 11.76 21.0685 11.0469 19.1669 11.0469L19.1693 11.0518Z" fill="#FBF7F8"/>
<path id="Vector_5" d="M28.9104 9.03238C28.3173 8.43933 25.7025 6.53766 19.8823 6.53766C19.8823 6.53766 12.9912 6.18232 9.66574 9.15246C7.76407 10.9341 7.17102 13.6665 7.05094 17.112C6.93331 20.4375 6.93331 26.8532 12.9912 28.5172V31.132C12.9912 31.132 12.9912 32.2004 13.7043 32.4382C14.5351 32.6759 15.0105 31.8451 15.8437 31.0119C16.3191 30.5365 16.9122 29.8234 17.3876 29.3479C21.5463 29.7033 24.7541 28.8725 25.1095 28.7549C25.9402 28.5172 30.692 27.9241 31.5252 21.5084C32.2383 14.9751 31.0498 10.8164 28.9104 9.03483V9.03238ZM29.6235 21.0306C28.9104 26.2577 25.1095 26.6131 24.3964 26.8508C24.041 26.9684 21.3086 27.6815 17.7429 27.4438C17.7429 27.4438 15.1281 30.6517 14.2974 31.4824C14.1798 31.6 14.0597 31.7201 13.9421 31.6C13.8244 31.6 13.7043 31.3623 13.7043 31.1246V26.7282C8.59482 25.302 8.83253 19.9572 8.95261 17.1047C8.95261 14.2546 9.54566 11.9952 11.092 10.4513C13.9421 7.83893 19.7647 8.3119 19.7647 8.3119C24.6365 8.3119 27.0112 9.85579 27.6067 10.3312C29.3882 11.8751 30.3391 15.5584 29.626 21.0232L29.6235 21.0306Z" fill="#FBF7F8"/>
<path id="Vector_6" d="M24.0409 21.0304C23.6856 20.7927 23.2101 20.4373 22.8523 20.3172C22.3769 20.0795 21.7839 20.1996 21.5462 20.555L21.0708 21.148C20.833 21.3857 20.3576 21.3857 20.3576 21.3857C16.9121 20.4349 16.0813 17.1094 16.0813 17.1094C16.0813 17.1094 15.9637 16.634 16.319 16.3963L16.9121 15.9208C17.2674 15.6831 17.5051 15.2077 17.1498 14.6147C17.0321 14.377 16.6744 13.7839 16.4366 13.4261C16.0813 13.0708 15.4858 12.3577 15.4858 12.3577C15.2481 12.0023 14.7727 11.8822 14.2973 12.12C13.9419 12.3577 13.4665 12.5954 13.1087 13.0708C12.871 13.4261 12.6333 13.7839 12.6333 14.1393V14.2569C12.6333 14.4946 12.7509 14.6122 12.7509 14.7323C12.8686 15.3254 13.2263 16.1586 14.0571 17.5824C14.5325 18.5332 15.1256 19.2463 15.601 19.9595C15.8387 20.3148 16.194 20.6726 16.5518 21.0279C16.9072 21.3833 17.265 21.741 17.5027 21.8587C18.2158 22.3341 18.9289 22.9271 19.8798 23.4026C21.306 24.2333 22.2568 24.5911 22.7298 24.7087C22.9675 24.8264 23.0852 24.8264 23.2052 24.8264H23.3229C23.6782 24.8264 24.036 24.5887 24.3913 24.3509C24.7467 23.9956 25.1045 23.6378 25.3422 23.1624C25.5799 22.687 25.4598 22.3316 25.1045 21.9739C25.1045 21.9739 24.3913 21.2607 24.036 21.023L24.0409 21.0304Z" fill="#FBF7F8"/>
</g>
</g>
<defs>
<clipPath id="clip0_725_97706">
<rect width="38.5358" height="38.5358" fill="white" transform="translate(0.11084 0.231934)"/>
</clipPath>
</defs>
</svg>
