<svg width="39" height="40" viewBox="0 0 39 40" fill="none" xmlns="http://www.w3.org/2000/svg">
<g id="Layer_16" clip-path="url(#clip0_725_97742)">
<path id="Vector" d="M35.9388 3.43937C33.2284 0.731445 28.8687 0.731445 20.1495 0.731445H18.608C9.88877 0.731445 5.52914 0.731445 2.81876 3.43937C0.11084 6.14974 0.11084 10.5094 0.11084 19.2286V20.7701C0.11084 29.4893 0.11084 33.849 2.81876 36.5594C5.52669 39.2673 9.88632 39.2673 18.608 39.2673H20.1495C28.8687 39.2673 33.2284 39.2673 35.9388 36.5594C38.6467 33.8514 38.6467 29.4918 38.6467 20.7701V19.2286C38.6467 10.5094 38.6467 6.14974 35.9388 3.43937Z" fill="#693CA1"/>
<g id="Group">
<path id="Vector_2" d="M20.2401 14.9966C20.0024 14.9966 19.8848 15.1142 19.8848 15.3519C19.8848 15.5896 20.0024 15.7073 20.2401 15.7073C21.3086 15.7073 21.9041 16.3003 21.9041 17.3712C21.9041 17.6089 22.1418 17.7266 22.2594 17.7266C22.4971 17.7266 22.6147 17.6089 22.4971 17.3712C22.4971 15.8273 21.6664 15.1142 20.2401 14.9941V14.9966Z" fill="white"/>
<path id="Vector_3" d="M23.5654 17.9666C23.5654 18.2043 23.6831 18.322 23.9208 18.322C24.1585 18.322 24.2761 18.2043 24.2761 17.9666C24.2761 16.6604 23.9208 15.5895 23.0876 14.7588C22.2568 13.928 21.1859 13.4526 19.7621 13.3325C19.5244 13.3325 19.4067 13.4501 19.4067 13.6879C19.4067 13.9256 19.5244 14.0432 19.7621 14.0432C20.9506 14.0432 21.9015 14.5186 22.6121 15.2317C23.3253 15.9449 23.563 16.8957 23.563 17.9642L23.5654 17.9666Z" fill="white"/>
<path id="Vector_4" d="M19.1693 11.5513C18.9316 11.5513 18.814 11.6689 18.814 11.9066C18.814 12.1443 18.9316 12.262 19.1693 12.262C20.9509 12.3796 22.3772 12.855 23.5657 14.0436C24.7542 15.112 25.3473 16.6584 25.3473 18.6777C25.3473 18.9154 25.4649 19.033 25.7026 19.033C25.8203 19.033 25.9403 18.7953 26.058 18.5576C25.9403 16.4182 25.3448 14.7567 24.0387 13.4481C22.7325 12.2595 21.0685 11.5464 19.1669 11.5464L19.1693 11.5513Z" fill="white"/>
<path id="Vector_5" d="M28.9104 9.53189C28.3173 8.93885 25.7025 7.03717 19.8823 7.03717C19.8823 7.03717 12.9912 6.68183 9.66574 9.65197C7.76407 11.4336 7.17102 14.166 7.05094 17.6116C6.93331 20.937 6.93331 27.3527 12.9912 29.0167V31.6315C12.9912 31.6315 12.9912 32.7 13.7043 32.9377C14.5351 33.1754 15.0105 32.3446 15.8437 31.5114C16.3191 31.036 16.9122 30.3229 17.3876 29.8474C21.5463 30.2028 24.7541 29.372 25.1095 29.2544C25.9402 29.0167 30.692 28.4236 31.5252 22.0079C32.2383 15.4746 31.0498 11.3159 28.9104 9.53434V9.53189ZM29.6235 21.5301C28.9104 26.7572 25.1095 27.1126 24.3964 27.3503C24.041 27.4679 21.3086 28.181 17.7429 27.9433C17.7429 27.9433 15.1281 31.1512 14.2974 31.9819C14.1798 32.0996 14.0597 32.2196 13.9421 32.0996C13.8244 32.0996 13.7043 31.8618 13.7043 31.6241V27.2277C8.59482 25.8015 8.83253 20.4567 8.95261 17.6042C8.95261 14.7541 9.54566 12.4947 11.092 10.9508C13.9421 8.33845 19.7647 8.81141 19.7647 8.81141C24.6365 8.81141 27.0112 10.3553 27.6067 10.8307C29.3882 12.3746 30.3391 16.0579 29.626 21.5227L29.6235 21.5301Z" fill="white"/>
<path id="Vector_6" d="M24.0409 21.5299C23.6856 21.2922 23.2101 20.9368 22.8523 20.8168C22.3769 20.579 21.7839 20.6991 21.5462 21.0545L21.0708 21.6475C20.833 21.8852 20.3576 21.8852 20.3576 21.8852C16.9121 20.9344 16.0813 17.6089 16.0813 17.6089C16.0813 17.6089 15.9637 17.1335 16.319 16.8958L16.9121 16.4204C17.2674 16.1827 17.5051 15.7072 17.1498 15.1142C17.0321 14.8765 16.6744 14.2834 16.4366 13.9256C16.0813 13.5703 15.4858 12.8572 15.4858 12.8572C15.2481 12.5018 14.7727 12.3818 14.2973 12.6195C13.9419 12.8572 13.4665 13.0949 13.1087 13.5703C12.871 13.9256 12.6333 14.2834 12.6333 14.6388V14.7564C12.6333 14.9941 12.7509 15.1117 12.7509 15.2318C12.8686 15.8249 13.2263 16.6581 14.0571 18.0819C14.5325 19.0327 15.1256 19.7458 15.601 20.459C15.8387 20.8143 16.194 21.1721 16.5518 21.5274C16.9072 21.8828 17.265 22.2406 17.5027 22.3582C18.2158 22.8336 18.9289 23.4267 19.8798 23.9021C21.306 24.7328 22.2568 25.0906 22.7298 25.2082C22.9675 25.3259 23.0852 25.3259 23.2052 25.3259H23.3229C23.6782 25.3259 24.036 25.0882 24.3913 24.8505C24.7467 24.4951 25.1045 24.1373 25.3422 23.6619C25.5799 23.1865 25.4598 22.8312 25.1045 22.4734C25.1045 22.4734 24.3913 21.7602 24.036 21.5225L24.0409 21.5299Z" fill="white"/>
</g>
</g>
<defs>
<clipPath id="clip0_725_97742">
<rect width="38.5358" height="38.5358" fill="white" transform="translate(0.11084 0.731445)"/>
</clipPath>
</defs>
</svg>
