<svg width="39" height="40" viewBox="0 0 39 40" fill="none" xmlns="http://www.w3.org/2000/svg">
<g id="Layer_16" clip-path="url(#clip0_725_97732)">
<path id="Vector" d="M35.9805 3.43937C33.2701 0.731445 28.9105 0.731445 20.1912 0.731445H18.6498C9.93052 0.731445 5.57089 0.731445 2.86051 3.43937C0.152588 6.14974 0.152588 10.5094 0.152588 19.2286V20.7701C0.152588 29.4893 0.152588 33.849 2.86051 36.5594C5.56844 39.2673 9.92807 39.2673 18.6498 39.2673H20.1912C28.9105 39.2673 33.2701 39.2673 35.9805 36.5594C38.6884 33.8514 38.6884 29.4918 38.6884 20.7701V19.2286C38.6884 10.5094 38.6884 6.14974 35.9805 3.43937Z" fill="#0077FF"/>
<path id="Vector_2" d="M27.7122 28.0192C26.732 24.9682 24.2936 22.6083 21.0662 22.2872V28.0192H20.5687C11.7857 28.0192 6.77666 21.9981 6.56836 11.98H10.9672C11.1118 19.3343 14.3539 22.449 16.9246 23.091V11.98H21.0686V18.3222C23.605 18.0501 26.2713 15.1584 27.1706 11.98H31.3122C30.6211 15.8985 27.7318 18.7878 25.6758 19.9763C27.7318 20.9394 31.023 23.4611 32.2753 28.0217H27.7147L27.7122 28.0192Z" fill="white"/>
</g>
<defs>
<clipPath id="clip0_725_97732">
<rect width="38.5358" height="38.5358" fill="white" transform="translate(0.152588 0.731445)"/>
</clipPath>
</defs>
</svg>
