<svg width="39" height="39" viewBox="0 0 39 39" fill="none" xmlns="http://www.w3.org/2000/svg">
<g id="Layer_16" clip-path="url(#clip0_725_97696)">
<path id="Vector" d="M35.9805 2.93986C33.2701 0.231934 28.9105 0.231934 20.1912 0.231934H18.6498C9.93052 0.231934 5.57089 0.231934 2.86051 2.93986C0.152588 5.65023 0.152588 10.0099 0.152588 18.7291V20.2706C0.152588 28.9898 0.152588 33.3495 2.86051 36.0598C5.56844 38.7678 9.92807 38.7678 18.6498 38.7678H20.1912C28.9105 38.7678 33.2701 38.7678 35.9805 36.0598C38.6884 33.3519 38.6884 28.9923 38.6884 20.2706V18.7291C38.6884 10.0099 38.6884 5.65023 35.9805 2.93986Z" fill="#242329"/>
<path id="Vector_2" d="M27.7122 27.5197C26.732 24.4687 24.2936 22.1088 21.0662 21.7877V27.5197H20.5687C11.7857 27.5197 6.77666 21.4986 6.56836 11.4805H10.9672C11.1118 18.8347 14.3539 21.9495 16.9246 22.5915V11.4805H21.0686V17.8226C23.605 17.5506 26.2713 14.6589 27.1706 11.4805H31.3122C30.6211 15.399 27.7318 18.2883 25.6758 19.4768C27.7318 20.4399 31.023 22.9616 32.2753 27.5222H27.7147L27.7122 27.5197Z" fill="#FBF7F8"/>
</g>
<defs>
<clipPath id="clip0_725_97696">
<rect width="38.5358" height="38.5358" fill="white" transform="translate(0.152588 0.231934)"/>
</clipPath>
</defs>
</svg>
