<svg width="40" height="40" viewBox="0 0 40 40" fill="none" xmlns="http://www.w3.org/2000/svg">
<g id="Layer_16" clip-path="url(#clip0_725_97751)">
<path id="Vector" d="M36.4178 3.43937C33.7074 0.731445 29.3477 0.731445 20.6285 0.731445H19.087C10.3678 0.731445 6.00814 0.731445 3.29777 3.43937C0.589844 6.14974 0.589844 10.5094 0.589844 19.2286V20.7701C0.589844 29.4893 0.589844 33.849 3.29777 36.5594C6.00569 39.2673 10.3653 39.2673 19.087 39.2673H20.6285C29.3477 39.2673 33.7074 39.2673 36.4178 36.5594C39.1257 33.8514 39.1257 29.4918 39.1257 20.7701V19.2286C39.1257 10.5094 39.1257 6.14974 36.4178 3.43937Z" fill="#2CB742"/>
<path id="Vector_2" d="M20.3098 7.06641C13.8231 7.06641 8.56405 12.3254 8.56405 18.8122C8.56405 21.0006 9.16445 23.0493 10.2084 24.8039L8.15234 30.9721L14.845 29.2101C16.4771 30.0703 18.3371 30.558 20.3098 30.558C26.7966 30.558 32.0556 25.2989 32.0556 18.8122C32.0556 12.3254 26.7966 7.06641 20.3098 7.06641ZM26.9338 22.6082C26.6765 23.5002 26.3506 24.6299 26.1839 25.2009C25.8408 25.1715 25.5002 25.1299 25.1645 25.0759C19.6285 24.1692 15.2175 19.8782 14.1318 14.4035C14.0314 13.8963 13.9627 13.3767 13.9211 12.8498C14.5901 12.6366 15.7002 12.2838 16.5163 12.024C17.1069 11.8353 17.5431 11.6981 17.5431 11.6981L19.4497 14.879L17.6999 16.7096C18.7096 18.6774 20.3025 20.2997 22.2532 21.3437L24.0666 19.5131L27.299 21.3339C27.299 21.3339 27.1372 21.895 26.9314 22.6106L26.9338 22.6082Z" fill="white"/>
</g>
<defs>
<clipPath id="clip0_725_97751">
<rect width="38.5358" height="38.5358" fill="white" transform="translate(0.589844 0.731445)"/>
</clipPath>
</defs>
</svg>
