<svg width="40" height="39" viewBox="0 0 40 39" fill="none" xmlns="http://www.w3.org/2000/svg">
<g id="Layer_16" clip-path="url(#clip0_725_97715)">
<path id="Vector" d="M36.4178 2.93986C33.7074 0.231934 29.3477 0.231934 20.6285 0.231934H19.087C10.3678 0.231934 6.00814 0.231934 3.29777 2.93986C0.589844 5.65023 0.589844 10.0099 0.589844 18.7291V20.2706C0.589844 28.9898 0.589844 33.3495 3.29777 36.0598C6.00569 38.7678 10.3653 38.7678 19.087 38.7678H20.6285C29.3477 38.7678 33.7074 38.7678 36.4178 36.0598C39.1257 33.3519 39.1257 28.9923 39.1257 20.2706V18.7291C39.1257 10.0099 39.1257 5.65023 36.4178 2.93986Z" fill="#242329"/>
<path id="Vector_2" d="M20.3098 6.56689C13.8231 6.56689 8.56405 11.8259 8.56405 18.3127C8.56405 20.5011 9.16445 22.5498 10.2084 24.3044L8.15234 30.4726L14.845 28.7106C16.4771 29.5708 18.3371 30.0584 20.3098 30.0584C26.7966 30.0584 32.0556 24.7994 32.0556 18.3127C32.0556 11.8259 26.7966 6.56689 20.3098 6.56689ZM26.9338 22.1087C26.6765 23.0007 26.3506 24.1304 26.1839 24.7014C25.8408 24.672 25.5002 24.6303 25.1645 24.5764C19.6285 23.6697 15.2175 19.3787 14.1318 13.904C14.0314 13.3967 13.9627 12.8772 13.9211 12.3503C14.5901 12.1371 15.7002 11.7842 16.5163 11.5245C17.1069 11.3358 17.5431 11.1985 17.5431 11.1985L19.4497 14.3794L17.6999 16.21C18.7096 18.1779 20.3025 19.8002 22.2532 20.8441L24.0666 19.0135L27.299 20.8343C27.299 20.8343 27.1372 21.3955 26.9314 22.1111L26.9338 22.1087Z" fill="#FBF7F8"/>
</g>
<defs>
<clipPath id="clip0_725_97715">
<rect width="38.5358" height="38.5358" fill="white" transform="translate(0.589844 0.231934)"/>
</clipPath>
</defs>
</svg>
