<svg width="1380" height="288" viewBox="0 0 1380 288" fill="none" xmlns="http://www.w3.org/2000/svg">
<path d="M82.8622 284.167L0 3.8327H85.0572L123.47 176.304H125.665L171.212 3.8327H238.16L283.707 176.852H285.902L324.315 3.8327H409.372L326.51 284.167H253.525L205.784 127.574H203.589L155.847 284.167H82.8622Z" fill="#1273EB"/>
<path d="M422.476 284.167V3.8327H498.754V113.338H599.725V3.8327H676.002V284.167H599.725V174.662H498.754V284.167H422.476Z" fill="#1273EB"/>
<path d="M700.63 284.167V3.8327H898.182V65.1559H776.907V113.338H886.11V174.662H776.907V284.167H700.63Z" fill="#1273EB"/>
<path d="M915.196 284.167V229.414L1020.01 142.905C1026.96 137.156 1032.9 131.772 1037.84 126.753C1042.87 121.643 1046.71 116.395 1049.37 111.011C1052.11 105.627 1053.48 99.6502 1053.48 93.0798C1053.48 85.8707 1051.93 79.711 1048.82 74.6008C1045.8 69.4905 1041.59 65.5665 1036.2 62.8289C1030.8 60 1024.58 58.5855 1017.54 58.5855C1010.5 58.5855 1004.28 60 998.882 62.8289C993.577 65.6578 989.461 69.8099 986.535 75.2852C983.608 80.7605 982.145 87.4221 982.145 95.27H909.709C909.709 75.5589 914.145 58.5855 923.016 44.3498C931.888 30.1141 944.418 19.1635 960.606 11.4981C976.794 3.8327 995.772 0 1017.54 0C1040.04 0 1059.52 3.60457 1075.98 10.8137C1092.54 17.9316 1105.29 27.9696 1114.26 40.9278C1123.31 53.8859 1127.84 69.0798 1127.84 86.5095C1127.84 97.2776 1125.6 108 1121.12 118.677C1116.64 129.262 1108.59 140.989 1096.97 153.856C1085.36 166.722 1068.85 182.053 1047.45 199.848L1021.11 221.749V223.392H1130.86V284.167H915.196Z" fill="#1273EB"/>
<path d="M1263.11 288C1240.98 288 1221.31 284.213 1204.12 276.639C1187.02 268.973 1173.57 258.433 1163.79 245.019C1154 231.605 1149.06 216.183 1148.97 198.753H1225.8C1225.89 204.137 1227.53 208.973 1230.73 213.262C1234.03 217.46 1238.51 220.745 1244.18 223.118C1249.85 225.49 1256.34 226.677 1263.66 226.677C1270.7 226.677 1276.92 225.445 1282.32 222.981C1287.71 220.426 1291.92 216.913 1294.94 212.441C1297.96 207.97 1299.42 202.859 1299.33 197.11C1299.42 191.452 1297.68 186.433 1294.12 182.053C1290.64 177.673 1285.75 174.251 1279.44 171.787C1273.13 169.323 1265.85 168.091 1257.62 168.091H1229.09V115.529H1257.62C1265.21 115.529 1271.89 114.297 1277.65 111.833C1283.51 109.369 1288.03 105.947 1291.23 101.567C1294.53 97.1863 1296.13 92.1673 1296.04 86.5095C1296.13 81.0342 1294.8 76.1977 1292.06 72C1289.31 67.8023 1285.47 64.5171 1280.53 62.1445C1275.69 59.7719 1270.06 58.5855 1263.66 58.5855C1256.71 58.5855 1250.49 59.8175 1245 62.2814C1239.61 64.7452 1235.35 68.1673 1232.24 72.5475C1229.13 76.9278 1227.53 81.9468 1227.44 87.6046H1154.46C1154.55 70.4487 1159.26 55.3004 1168.59 42.1597C1178.01 29.019 1190.9 18.7072 1207.27 11.2243C1223.65 3.74144 1242.44 0 1263.66 0C1284.42 0 1302.76 3.51331 1318.67 10.5399C1334.68 17.5665 1347.16 27.2395 1356.12 39.5589C1365.18 51.7871 1369.66 65.7947 1369.57 81.5818C1369.75 97.2776 1364.36 110.145 1353.38 120.183C1342.5 130.221 1328.69 136.152 1311.95 137.977V140.167C1334.63 142.631 1351.69 149.567 1363.12 160.973C1374.55 172.289 1380.18 186.525 1380 203.681C1380.09 220.106 1375.15 234.662 1365.18 247.346C1355.3 260.03 1341.54 269.977 1323.89 277.186C1306.33 284.395 1286.07 288 1263.11 288Z" fill="#1273EB"/>
</svg>
