<svg width="1174" height="220" viewBox="0 0 1174 220" fill="none" xmlns="http://www.w3.org/2000/svg">
<mask id="path-1-outside-1_725_98639" maskUnits="userSpaceOnUse" x="0" y="0" width="1174" height="220" fill="black">
<rect fill="white" width="1174" height="220"/>
<path d="M2 176.024V2H68.6069C81.1807 2 91.6305 3.98269 99.9564 7.94807C108.339 11.8568 114.597 17.2101 118.732 24.0079C122.923 30.8057 125.019 38.5098 125.019 47.1204C125.019 54.2014 123.66 60.2628 120.941 65.3045C118.222 70.2895 114.569 74.3399 109.981 77.4555C105.394 80.5712 100.268 82.8088 94.604 84.1684V85.8678C100.778 86.2077 106.696 88.1054 112.36 91.561C118.081 94.9599 122.753 99.775 126.378 106.006C130.003 112.238 131.816 119.772 131.816 128.609C131.816 137.616 129.635 145.717 125.274 152.911C120.913 160.049 114.343 165.685 105.564 169.821C96.7846 173.956 85.7401 176.024 72.43 176.024H2ZM33.5194 149.682H67.4175C78.8585 149.682 87.0994 147.501 92.1402 143.139C97.2377 138.721 99.7864 133.056 99.7864 126.145C99.7864 120.99 98.5121 116.345 95.9633 112.209C93.4146 108.017 89.7897 104.732 85.0887 102.352C80.3877 99.9166 74.7805 98.6987 68.2671 98.6987H33.5194V149.682ZM33.5194 76.011H64.6989C70.1362 76.011 75.0354 75.0197 79.3966 73.037C83.7577 70.9976 87.1844 68.1369 89.6765 64.4548C92.2252 60.716 93.4996 56.2974 93.4996 51.1991C93.4996 44.4579 91.1208 38.9064 86.3631 34.5444C81.6621 30.1825 74.6673 28.0016 65.3785 28.0016H33.5194V76.011Z"/>
<path d="M156.843 176.024V2H270.007V28.4264H188.363V75.6711H264.145V102.098H188.363V149.597H270.687V176.024H156.843Z"/>
<path d="M288.472 218V150.277H300.111C304.019 147.161 307.672 142.771 311.071 137.106C314.469 131.441 317.357 123.681 319.736 113.824C322.115 103.967 323.758 91.2211 324.664 75.5861L329.252 2H440.461V150.277H459.832V217.83H429.587V176.024H318.717V218H288.472ZM336.813 150.277H410.216V28.4264H357.627L354.909 75.5861C354.173 87.4256 352.983 98.0189 351.341 107.366C349.698 116.713 347.631 124.955 345.139 132.093C342.647 139.174 339.871 145.235 336.813 150.277Z"/>
<path d="M498.665 178.403V151.891H508.605C513.08 151.891 516.761 151.24 519.65 149.937C522.538 148.634 524.86 146.765 526.616 144.329C528.429 141.893 529.93 139.061 531.119 135.832L533.413 129.969L471.224 2H504.187L547.516 95.1298L584.982 2H617.436L557.456 143.904C554.681 150.022 551.481 155.715 547.856 160.983C544.231 166.195 539.501 170.415 533.668 173.644C527.891 176.817 520.358 178.403 511.069 178.403H498.665Z"/>
<path d="M859.998 150.787L857.62 216.98H828.479V176.024H813.441V150.787H859.998ZM642.082 2H673.091V149.852H726.784V2H757.624V149.852H810.893V2H841.732V176.024H642.082V2Z"/>
<path d="M883.221 2H914.485V120.622H916.099L997.914 2H1026.2V176.024H994.685V57.487H993.241L911.172 176.024H883.221V2Z"/>
<path d="M1058.16 176.024V2H1171.32V28.4264H1089.68V75.6711H1165.46V102.098H1089.68V149.597H1172V176.024H1058.16Z"/>
</mask>
<path d="M2 176.024V2H68.6069C81.1807 2 91.6305 3.98269 99.9564 7.94807C108.339 11.8568 114.597 17.2101 118.732 24.0079C122.923 30.8057 125.019 38.5098 125.019 47.1204C125.019 54.2014 123.66 60.2628 120.941 65.3045C118.222 70.2895 114.569 74.3399 109.981 77.4555C105.394 80.5712 100.268 82.8088 94.604 84.1684V85.8678C100.778 86.2077 106.696 88.1054 112.36 91.561C118.081 94.9599 122.753 99.775 126.378 106.006C130.003 112.238 131.816 119.772 131.816 128.609C131.816 137.616 129.635 145.717 125.274 152.911C120.913 160.049 114.343 165.685 105.564 169.821C96.7846 173.956 85.7401 176.024 72.43 176.024H2ZM33.5194 149.682H67.4175C78.8585 149.682 87.0994 147.501 92.1402 143.139C97.2377 138.721 99.7864 133.056 99.7864 126.145C99.7864 120.99 98.5121 116.345 95.9633 112.209C93.4146 108.017 89.7897 104.732 85.0887 102.352C80.3877 99.9166 74.7805 98.6987 68.2671 98.6987H33.5194V149.682ZM33.5194 76.011H64.6989C70.1362 76.011 75.0354 75.0197 79.3966 73.037C83.7577 70.9976 87.1844 68.1369 89.6765 64.4548C92.2252 60.716 93.4996 56.2974 93.4996 51.1991C93.4996 44.4579 91.1208 38.9064 86.3631 34.5444C81.6621 30.1825 74.6673 28.0016 65.3785 28.0016H33.5194V76.011Z" stroke="#F90132" stroke-width="4" mask="url(#path-1-outside-1_725_98639)"/>
<path d="M156.843 176.024V2H270.007V28.4264H188.363V75.6711H264.145V102.098H188.363V149.597H270.687V176.024H156.843Z" stroke="#F90132" stroke-width="4" mask="url(#path-1-outside-1_725_98639)"/>
<path d="M288.472 218V150.277H300.111C304.019 147.161 307.672 142.771 311.071 137.106C314.469 131.441 317.357 123.681 319.736 113.824C322.115 103.967 323.758 91.2211 324.664 75.5861L329.252 2H440.461V150.277H459.832V217.83H429.587V176.024H318.717V218H288.472ZM336.813 150.277H410.216V28.4264H357.627L354.909 75.5861C354.173 87.4256 352.983 98.0189 351.341 107.366C349.698 116.713 347.631 124.955 345.139 132.093C342.647 139.174 339.871 145.235 336.813 150.277Z" stroke="#F90132" stroke-width="4" mask="url(#path-1-outside-1_725_98639)"/>
<path d="M498.665 178.403V151.891H508.605C513.08 151.891 516.761 151.24 519.65 149.937C522.538 148.634 524.86 146.765 526.616 144.329C528.429 141.893 529.93 139.061 531.119 135.832L533.413 129.969L471.224 2H504.187L547.516 95.1298L584.982 2H617.436L557.456 143.904C554.681 150.022 551.481 155.715 547.856 160.983C544.231 166.195 539.501 170.415 533.668 173.644C527.891 176.817 520.358 178.403 511.069 178.403H498.665Z" stroke="#F90132" stroke-width="4" mask="url(#path-1-outside-1_725_98639)"/>
<path d="M859.998 150.787L857.62 216.98H828.479V176.024H813.441V150.787H859.998ZM642.082 2H673.091V149.852H726.784V2H757.624V149.852H810.893V2H841.732V176.024H642.082V2Z" stroke="#F90132" stroke-width="4" mask="url(#path-1-outside-1_725_98639)"/>
<path d="M883.221 2H914.485V120.622H916.099L997.914 2H1026.2V176.024H994.685V57.487H993.241L911.172 176.024H883.221V2Z" stroke="#F90132" stroke-width="4" mask="url(#path-1-outside-1_725_98639)"/>
<path d="M1058.16 176.024V2H1171.32V28.4264H1089.68V75.6711H1165.46V102.098H1089.68V149.597H1172V176.024H1058.16Z" stroke="#F90132" stroke-width="4" mask="url(#path-1-outside-1_725_98639)"/>
</svg>
