<svg width="814" height="206" viewBox="0 0 814 206" fill="none" xmlns="http://www.w3.org/2000/svg">
<path d="M2 1H1V2V164.744V165.744H2H30.2596H31.2596V164.744V54.1136L75.7699 164.641L76.0222 165.268H76.6975H97.8128H98.4876L98.7402 164.642L143.251 54.3497V164.744V165.744H144.251H172.51H173.51V164.744V2V1H172.51H136.471H135.8L135.546 1.62122L87.5365 118.926H86.9738L38.9644 1.62122L38.7102 1H38.039H2ZM201.345 164.744V165.744H202.345H308.715H309.715V164.744V140.031V139.031H308.715H232.795V96.6098H302.603H303.603V95.6098V70.8961V69.8961H302.603H232.795V27.7136H308.08H309.08V26.7136V2V1H308.08H202.345H201.345V2V164.744ZM324.333 204V205H325.333H353.593H354.593V204V165.744H456.185V203.841V204.841H457.185H485.444H486.444V203.841V140.666V139.666H485.444H468.346V2V1H467.346H363.436H362.496L362.438 1.93783L358.151 70.7545L358.151 70.7589C357.306 85.3493 355.776 97.2038 353.573 106.342C351.363 115.508 348.694 122.658 345.591 127.835C342.538 132.928 339.288 136.86 335.855 139.666H325.333H324.333V140.666V204ZM390.893 27.7136H438.086V139.666H372.249C374.798 135.199 377.121 129.972 379.223 123.993L379.224 123.99C381.574 117.253 383.518 109.491 385.06 100.71C386.602 91.9239 387.717 81.9793 388.407 70.8787L388.407 70.8742L390.893 27.7136ZM507.202 1H506.202V2V164.744V165.744H507.202H533.318H533.842L534.141 165.313L610.35 55.1432V164.744V165.744H611.35H640.8H641.8V164.744V2V1H640.8H614.366H613.841L613.543 1.43258L537.414 111.908V2V1H536.414H507.202ZM691.532 165.744H692.251L692.48 165.062L705.696 125.614H765.377L778.617 165.062L778.846 165.744H779.565H811H812.412L811.943 164.412L754.63 1.66783L754.395 1H753.687H717.331H716.622L716.387 1.66824L659.153 164.413L658.685 165.744H660.097H691.532ZM735.509 36.6268L756.757 99.9339H714.299L735.509 36.6268Z" stroke="white" stroke-width="2"/>
</svg>
