<svg width="1189" height="142" viewBox="0 0 1189 142" fill="none" xmlns="http://www.w3.org/2000/svg">
<mask id="path-1-outside-1_725_98416" maskUnits="userSpaceOnUse" x="0" y="0" width="1189" height="142" fill="black">
<rect fill="white" width="1189" height="142"/>
<path d="M108.765 2.86312V139.137H84.4654V23.3574H25.3001V139.137H1V2.86312H108.765Z"/>
<path d="M136.208 139.137V2.86312H186.921C197.31 2.86312 206.027 4.81495 213.07 8.71863C220.158 12.6223 225.506 17.9899 229.116 24.8213C232.77 31.6084 234.597 39.327 234.597 47.9772C234.597 56.7161 232.77 64.4791 229.116 71.2662C225.462 78.0532 220.07 83.3986 212.938 87.3023C205.807 91.1616 197.024 93.0913 186.591 93.0913H152.98V72.7966H183.289C189.364 72.7966 194.339 71.7319 198.213 69.6027C202.087 67.4734 204.948 64.5456 206.797 60.8194C208.69 57.0932 209.637 52.8124 209.637 47.9772C209.637 43.142 208.69 38.8834 206.797 35.2015C204.948 31.5196 202.065 28.6584 198.147 26.6179C194.273 24.533 189.276 23.4905 183.157 23.4905H160.706V139.137H136.208Z"/>
<path d="M374.856 71C374.856 85.6832 372.127 98.2592 366.668 108.728C361.254 119.153 353.858 127.138 344.481 132.683C335.149 138.227 324.561 141 312.72 141C300.878 141 290.268 138.227 280.892 132.683C271.559 127.093 264.163 119.086 258.705 108.662C253.29 98.1927 250.583 85.6388 250.583 71C250.583 56.3169 253.29 43.763 258.705 33.3384C264.163 22.8695 271.559 14.8625 280.892 9.31748C290.268 3.77249 300.878 1 312.72 1C324.561 1 335.149 3.77249 344.481 9.31748C353.858 14.8625 361.254 22.8695 366.668 33.3384C372.127 43.763 374.856 56.3169 374.856 71ZM350.226 71C350.226 60.6641 348.619 51.9474 345.406 44.8498C342.236 37.7079 337.834 32.3181 332.199 28.6806C326.564 24.9987 320.071 23.1578 312.72 23.1578C305.368 23.1578 298.875 24.9987 293.24 28.6806C287.605 32.3181 283.181 37.7079 279.967 44.8498C276.798 51.9474 275.213 60.6641 275.213 71C275.213 81.3359 276.798 90.0748 279.967 97.2167C283.181 104.314 287.605 109.704 293.24 113.386C298.875 117.023 305.368 118.842 312.72 118.842C320.071 118.842 326.564 117.023 332.199 113.386C337.834 109.704 342.236 104.314 345.406 97.2167C348.619 90.0748 350.226 81.3359 350.226 71Z"/>
<path d="M483.123 2.86312V23.557H420.656V139.137H396.158V2.86312H483.123Z"/>
<path d="M501.981 139.137V2.86312H552.695C563.084 2.86312 571.8 4.81495 578.844 8.71863C585.931 12.6223 591.28 17.9899 594.89 24.8213C598.543 31.6084 600.37 39.327 600.37 47.9772C600.37 56.7161 598.543 64.4791 594.89 71.2662C591.236 78.0532 585.843 83.3986 578.711 87.3023C571.58 91.1616 562.798 93.0913 552.364 93.0913H518.754V72.7966H549.063C555.138 72.7966 560.112 71.7319 563.986 69.6027C567.86 67.4734 570.722 64.5456 572.57 60.8194C574.463 57.0932 575.41 52.8124 575.41 47.9772C575.41 43.142 574.463 38.8834 572.57 35.2015C570.722 31.5196 567.838 28.6584 563.92 26.6179C560.046 24.533 555.05 23.4905 548.931 23.4905H526.48V139.137H501.981Z"/>
<path d="M622.084 139.137H595.935L643.545 2.86312H673.788L721.464 139.137H695.315L659.195 30.8099H658.138L622.084 139.137ZM622.943 85.7053H694.258V105.534H622.943V85.7053Z"/>
<path d="M737.417 2.86312H767.396L807.544 101.608H809.128L849.276 2.86312H879.255V139.137H855.747V45.5152H854.493L817.118 138.738H799.554L762.179 45.3156H760.924V139.137H737.417V2.86312Z"/>
<path d="M904.073 2.86312H934.052L974.2 101.608H975.784L1015.93 2.86312H1045.91V139.137H1022.4V45.5152H1021.15L983.774 138.738H966.21L928.835 45.3156H927.58V139.137H904.073V2.86312Z"/>
<path d="M1088.1 139.137H1061.95L1109.56 2.86312H1139.8L1187.47 139.137H1161.33L1125.21 30.8099H1124.15L1088.1 139.137ZM1088.95 85.7053H1160.27V105.534H1088.95V85.7053Z"/>
</mask>
<path d="M108.765 2.86312V139.137H84.4654V23.3574H25.3001V139.137H1V2.86312H108.765Z" stroke="#1273EB" stroke-width="2" mask="url(#path-1-outside-1_725_98416)"/>
<path d="M136.208 139.137V2.86312H186.921C197.31 2.86312 206.027 4.81495 213.07 8.71863C220.158 12.6223 225.506 17.9899 229.116 24.8213C232.77 31.6084 234.597 39.327 234.597 47.9772C234.597 56.7161 232.77 64.4791 229.116 71.2662C225.462 78.0532 220.07 83.3986 212.938 87.3023C205.807 91.1616 197.024 93.0913 186.591 93.0913H152.98V72.7966H183.289C189.364 72.7966 194.339 71.7319 198.213 69.6027C202.087 67.4734 204.948 64.5456 206.797 60.8194C208.69 57.0932 209.637 52.8124 209.637 47.9772C209.637 43.142 208.69 38.8834 206.797 35.2015C204.948 31.5196 202.065 28.6584 198.147 26.6179C194.273 24.533 189.276 23.4905 183.157 23.4905H160.706V139.137H136.208Z" stroke="#1273EB" stroke-width="2" mask="url(#path-1-outside-1_725_98416)"/>
<path d="M374.856 71C374.856 85.6832 372.127 98.2592 366.668 108.728C361.254 119.153 353.858 127.138 344.481 132.683C335.149 138.227 324.561 141 312.72 141C300.878 141 290.268 138.227 280.892 132.683C271.559 127.093 264.163 119.086 258.705 108.662C253.29 98.1927 250.583 85.6388 250.583 71C250.583 56.3169 253.29 43.763 258.705 33.3384C264.163 22.8695 271.559 14.8625 280.892 9.31748C290.268 3.77249 300.878 1 312.72 1C324.561 1 335.149 3.77249 344.481 9.31748C353.858 14.8625 361.254 22.8695 366.668 33.3384C372.127 43.763 374.856 56.3169 374.856 71ZM350.226 71C350.226 60.6641 348.619 51.9474 345.406 44.8498C342.236 37.7079 337.834 32.3181 332.199 28.6806C326.564 24.9987 320.071 23.1578 312.72 23.1578C305.368 23.1578 298.875 24.9987 293.24 28.6806C287.605 32.3181 283.181 37.7079 279.967 44.8498C276.798 51.9474 275.213 60.6641 275.213 71C275.213 81.3359 276.798 90.0748 279.967 97.2167C283.181 104.314 287.605 109.704 293.24 113.386C298.875 117.023 305.368 118.842 312.72 118.842C320.071 118.842 326.564 117.023 332.199 113.386C337.834 109.704 342.236 104.314 345.406 97.2167C348.619 90.0748 350.226 81.3359 350.226 71Z" stroke="#1273EB" stroke-width="2" mask="url(#path-1-outside-1_725_98416)"/>
<path d="M483.123 2.86312V23.557H420.656V139.137H396.158V2.86312H483.123Z" stroke="#1273EB" stroke-width="2" mask="url(#path-1-outside-1_725_98416)"/>
<path d="M501.981 139.137V2.86312H552.695C563.084 2.86312 571.8 4.81495 578.844 8.71863C585.931 12.6223 591.28 17.9899 594.89 24.8213C598.543 31.6084 600.37 39.327 600.37 47.9772C600.37 56.7161 598.543 64.4791 594.89 71.2662C591.236 78.0532 585.843 83.3986 578.711 87.3023C571.58 91.1616 562.798 93.0913 552.364 93.0913H518.754V72.7966H549.063C555.138 72.7966 560.112 71.7319 563.986 69.6027C567.86 67.4734 570.722 64.5456 572.57 60.8194C574.463 57.0932 575.41 52.8124 575.41 47.9772C575.41 43.142 574.463 38.8834 572.57 35.2015C570.722 31.5196 567.838 28.6584 563.92 26.6179C560.046 24.533 555.05 23.4905 548.931 23.4905H526.48V139.137H501.981Z" stroke="#1273EB" stroke-width="2" mask="url(#path-1-outside-1_725_98416)"/>
<path d="M622.084 139.137H595.935L643.545 2.86312H673.788L721.464 139.137H695.315L659.195 30.8099H658.138L622.084 139.137ZM622.943 85.7053H694.258V105.534H622.943V85.7053Z" stroke="#1273EB" stroke-width="2" mask="url(#path-1-outside-1_725_98416)"/>
<path d="M737.417 2.86312H767.396L807.544 101.608H809.128L849.276 2.86312H879.255V139.137H855.747V45.5152H854.493L817.118 138.738H799.554L762.179 45.3156H760.924V139.137H737.417V2.86312Z" stroke="#1273EB" stroke-width="2" mask="url(#path-1-outside-1_725_98416)"/>
<path d="M904.073 2.86312H934.052L974.2 101.608H975.784L1015.93 2.86312H1045.91V139.137H1022.4V45.5152H1021.15L983.774 138.738H966.21L928.835 45.3156H927.58V139.137H904.073V2.86312Z" stroke="#1273EB" stroke-width="2" mask="url(#path-1-outside-1_725_98416)"/>
<path d="M1088.1 139.137H1061.95L1109.56 2.86312H1139.8L1187.47 139.137H1161.33L1125.21 30.8099H1124.15L1088.1 139.137ZM1088.95 85.7053H1160.27V105.534H1088.95V85.7053Z" stroke="#1273EB" stroke-width="2" mask="url(#path-1-outside-1_725_98416)"/>
</svg>
