<svg width="1183" height="185" viewBox="0 0 1183 185" fill="none" xmlns="http://www.w3.org/2000/svg">
<mask id="path-1-outside-1_725_98628" maskUnits="userSpaceOnUse" x="0" y="0" width="1183" height="185" fill="black">
<rect fill="white" width="1183" height="185"/>
<path d="M157.239 63.8531H125.073C124.155 58.5768 122.464 53.9027 119.999 49.8308C117.533 45.7015 114.466 42.2031 110.796 39.3355C107.127 36.468 102.941 34.3173 98.2394 32.8836C93.5951 31.3924 88.5781 30.6469 83.1885 30.6469C73.6133 30.6469 65.1275 33.0556 57.7311 37.8731C50.3347 42.6332 44.5437 49.6301 40.3581 58.8636C36.1726 68.0398 34.0798 79.2519 34.0798 92.5C34.0798 105.978 36.1726 117.333 40.3581 126.567C44.601 135.743 50.392 142.682 57.7311 147.385C65.1275 152.03 73.5846 154.353 83.1025 154.353C88.3775 154.353 93.3084 153.665 97.8953 152.288C102.54 150.855 106.696 148.761 110.366 146.009C114.093 143.256 117.218 139.872 119.741 135.857C122.321 131.843 124.098 127.255 125.073 122.093L157.239 122.265C156.035 130.638 153.426 138.496 149.412 145.837C145.456 153.177 140.267 159.658 133.845 165.279C127.424 170.842 119.913 175.2 111.312 178.355C102.712 181.452 93.1651 183 82.6725 183C67.1916 183 53.3735 179.416 41.2182 172.247C29.0628 165.078 19.4876 154.726 12.4926 141.191C5.49753 127.656 2 111.426 2 92.5C2 73.5168 5.5262 57.2864 12.5786 43.8089C19.631 30.2741 29.2348 19.9222 41.3902 12.7533C53.5455 5.58444 67.3063 2 82.6725 2C92.477 2 101.594 3.37642 110.022 6.12927C118.45 8.88213 125.962 12.9254 132.555 18.259C139.149 23.5353 144.567 30.016 148.81 37.701C153.11 45.3287 155.92 54.0461 157.239 63.8531Z"/>
<path d="M327.751 4.40874V180.591H296.101V30.9049H219.041V180.591H187.391V4.40874H327.751Z"/>
<path d="M363.494 4.40874H395.143V124.502H396.777L479.6 4.40874H508.24V180.591H476.332V60.5841H474.87L391.789 180.591H363.494V4.40874Z"/>
<path d="M646.113 180.591L588.146 103.597H572.493V180.591H540.585V4.40874H572.493V76.8432H580.491L643.103 4.40874H682.407L612.829 84.7576L685.417 180.591H646.113Z"/>
<path d="M704.669 180.591V4.40874H819.227V31.163H736.576V78.9938H813.293V105.748H736.576V153.837H819.915V180.591H704.669Z"/>
<path d="M849.358 180.591V4.40874H915.409C928.941 4.40874 940.294 6.93219 949.467 11.9791C958.699 17.026 965.665 23.9655 970.367 32.7975C975.125 41.5722 977.505 51.5513 977.505 62.7348C977.505 74.033 975.125 84.0694 970.367 92.8441C965.608 101.619 958.584 108.53 949.295 113.577C940.007 118.566 928.568 121.061 914.979 121.061H871.203V94.8227H910.679C918.592 94.8227 925.071 93.4463 930.116 90.6935C935.162 87.9406 938.889 84.1554 941.297 79.3379C943.762 74.5204 944.995 68.9861 944.995 62.7348C944.995 56.4835 943.762 50.9778 941.297 46.2177C938.889 41.4575 935.133 37.7584 930.03 35.1202C924.985 32.4247 918.477 31.077 910.507 31.077H881.266V180.591H849.358Z"/>
<path d="M1024.39 72.4558H1069.11C1082.58 72.4558 1094.14 74.6638 1103.77 79.0798C1113.46 83.4385 1120.88 89.6038 1126.04 97.5756C1131.2 105.547 1133.78 114.924 1133.78 125.706C1133.78 136.546 1131.2 146.095 1126.04 154.353C1120.88 162.554 1113.46 168.978 1103.77 173.623C1094.14 178.269 1082.58 180.591 1069.11 180.591H1003.14V4.40874H1035.14V154.439H1069.11C1076.22 154.439 1082.24 153.091 1087.17 150.396C1092.1 147.7 1095.83 144.145 1098.35 139.729C1100.93 135.313 1102.22 130.524 1102.22 125.362C1102.22 117.907 1099.35 111.569 1093.62 106.35C1087.94 101.074 1079.77 98.4358 1069.11 98.4358H1024.39V72.4558ZM1181 4.40874V180.591H1149.01V4.40874H1181Z"/>
</mask>
<path d="M157.239 63.8531H125.073C124.155 58.5768 122.464 53.9027 119.999 49.8308C117.533 45.7015 114.466 42.2031 110.796 39.3355C107.127 36.468 102.941 34.3173 98.2394 32.8836C93.5951 31.3924 88.5781 30.6469 83.1885 30.6469C73.6133 30.6469 65.1275 33.0556 57.7311 37.8731C50.3347 42.6332 44.5437 49.6301 40.3581 58.8636C36.1726 68.0398 34.0798 79.2519 34.0798 92.5C34.0798 105.978 36.1726 117.333 40.3581 126.567C44.601 135.743 50.392 142.682 57.7311 147.385C65.1275 152.03 73.5846 154.353 83.1025 154.353C88.3775 154.353 93.3084 153.665 97.8953 152.288C102.54 150.855 106.696 148.761 110.366 146.009C114.093 143.256 117.218 139.872 119.741 135.857C122.321 131.843 124.098 127.255 125.073 122.093L157.239 122.265C156.035 130.638 153.426 138.496 149.412 145.837C145.456 153.177 140.267 159.658 133.845 165.279C127.424 170.842 119.913 175.2 111.312 178.355C102.712 181.452 93.1651 183 82.6725 183C67.1916 183 53.3735 179.416 41.2182 172.247C29.0628 165.078 19.4876 154.726 12.4926 141.191C5.49753 127.656 2 111.426 2 92.5C2 73.5168 5.5262 57.2864 12.5786 43.8089C19.631 30.2741 29.2348 19.9222 41.3902 12.7533C53.5455 5.58444 67.3063 2 82.6725 2C92.477 2 101.594 3.37642 110.022 6.12927C118.45 8.88213 125.962 12.9254 132.555 18.259C139.149 23.5353 144.567 30.016 148.81 37.701C153.11 45.3287 155.92 54.0461 157.239 63.8531Z" stroke="#1273EB" stroke-width="4" mask="url(#path-1-outside-1_725_98628)"/>
<path d="M327.751 4.40874V180.591H296.101V30.9049H219.041V180.591H187.391V4.40874H327.751Z" stroke="#1273EB" stroke-width="4" mask="url(#path-1-outside-1_725_98628)"/>
<path d="M363.494 4.40874H395.143V124.502H396.777L479.6 4.40874H508.24V180.591H476.332V60.5841H474.87L391.789 180.591H363.494V4.40874Z" stroke="#1273EB" stroke-width="4" mask="url(#path-1-outside-1_725_98628)"/>
<path d="M646.113 180.591L588.146 103.597H572.493V180.591H540.585V4.40874H572.493V76.8432H580.491L643.103 4.40874H682.407L612.829 84.7576L685.417 180.591H646.113Z" stroke="#1273EB" stroke-width="4" mask="url(#path-1-outside-1_725_98628)"/>
<path d="M704.669 180.591V4.40874H819.227V31.163H736.576V78.9938H813.293V105.748H736.576V153.837H819.915V180.591H704.669Z" stroke="#1273EB" stroke-width="4" mask="url(#path-1-outside-1_725_98628)"/>
<path d="M849.358 180.591V4.40874H915.409C928.941 4.40874 940.294 6.93219 949.467 11.9791C958.699 17.026 965.665 23.9655 970.367 32.7975C975.125 41.5722 977.505 51.5513 977.505 62.7348C977.505 74.033 975.125 84.0694 970.367 92.8441C965.608 101.619 958.584 108.53 949.295 113.577C940.007 118.566 928.568 121.061 914.979 121.061H871.203V94.8227H910.679C918.592 94.8227 925.071 93.4463 930.116 90.6935C935.162 87.9406 938.889 84.1554 941.297 79.3379C943.762 74.5204 944.995 68.9861 944.995 62.7348C944.995 56.4835 943.762 50.9778 941.297 46.2177C938.889 41.4575 935.133 37.7584 930.03 35.1202C924.985 32.4247 918.477 31.077 910.507 31.077H881.266V180.591H849.358Z" stroke="#1273EB" stroke-width="4" mask="url(#path-1-outside-1_725_98628)"/>
<path d="M1024.39 72.4558H1069.11C1082.58 72.4558 1094.14 74.6638 1103.77 79.0798C1113.46 83.4385 1120.88 89.6038 1126.04 97.5756C1131.2 105.547 1133.78 114.924 1133.78 125.706C1133.78 136.546 1131.2 146.095 1126.04 154.353C1120.88 162.554 1113.46 168.978 1103.77 173.623C1094.14 178.269 1082.58 180.591 1069.11 180.591H1003.14V4.40874H1035.14V154.439H1069.11C1076.22 154.439 1082.24 153.091 1087.17 150.396C1092.1 147.7 1095.83 144.145 1098.35 139.729C1100.93 135.313 1102.22 130.524 1102.22 125.362C1102.22 117.907 1099.35 111.569 1093.62 106.35C1087.94 101.074 1079.77 98.4358 1069.11 98.4358H1024.39V72.4558ZM1181 4.40874V180.591H1149.01V4.40874H1181Z" stroke="#1273EB" stroke-width="4" mask="url(#path-1-outside-1_725_98628)"/>
</svg>
